{
.appVersion = "3310";
.storedFileType = "public.truetype-ttf-font";
.formatVersion = 3;
customParameters = (
{
name = vendorID;
value = PfEd;
},
{
name = panose;
value = (
2,
0,
5,
3,
0,
0,
0,
0,
0,
0
);
},
{
name = unicodeRanges;
value = (
0
);
},
{
name = fsType;
value = (
);
},
{
name = glyphOrder;
value = (
.notdef,
.null,
CR,
space,
exclam,
quotedbl,
numbersign,
dollar,
percent,
ampersand,
quotesingle,
parenleft,
parenright,
asterisk,
plus,
comma,
hyphen,
period,
slash,
zero,
one,
two,
three,
four,
five,
six,
seven,
eight,
nine,
colon,
semicolon,
less,
equal,
greater,
question,
at,
A,
B,
C,
D,
E,
F,
G,
H,
I,
J,
K,
L,
M,
N,
O,
P,
Q,
R,
S,
T,
U,
V,
W,
X,
Y,
Z,
bracketleft,
backslash,
bracketright,
asciicircum,
underscore,
grave,
a,
b,
c,
d,
e,
f,
g,
h,
i,
j,
k,
l,
m,
n,
o,
p,
q,
r,
s,
t,
u,
v,
w,
x,
y,
z,
braceleft,
bar,
braceright,
asciitilde,
yen,
dieresis,
guillemotleft,
macron,
degree,
plusminus,
acute,
periodcentered,
cedilla,
guillemotright,
questiondown,
Agrave,
Aacute,
Acircumflex,
Atilde,
Adieresis,
Aring,
Ccedilla,
Egrave,
Eacute,
Ecircumflex,
Edieresis,
Igrave,
Iacute,
Icircumflex,
Idieresis,
Ntilde,
Ograve,
Oacute,
Ocircumflex,
Otilde,
Odieresis,
Ugrave,
Uacute,
Ucircumflex,
Udieresis,
Yacute,
germandbls,
agrave,
aacute,
acircumflex,
atilde,
adieresis,
aring,
ccedilla,
egrave,
eacute,
ecircumflex,
edieresis,
igrave,
iacute,
icircumflex,
idieresis,
ntilde,
ograve,
oacute,
ocircumflex,
otilde,
odieresis,
ugrave,
uacute,
ucircumflex,
udieresis,
yacute,
ydieresis,
Amacron,
amacron,
Abreve,
Aogonek,
aogonek,
Cacute,
cacute,
Ccircumflex,
ccircumflex,
Cdotaccent,
cdotaccent,
Ccaron,
ccaron,
Dcaron,
dcaron,
Emacron,
emacron,
Edotaccent,
edotaccent,
Eogonek,
eogonek,
Ecaron,
ecaron,
Gcircumflex,
gcircumflex,
Gdotaccent,
gdotaccent,
uni0122,
Hcircumflex,
hcircumflex,
Itilde,
itilde,
Imacron,
imacron,
Iogonek,
iogonek,
Idotaccent,
dotlessi,
ij,
Jcircumflex,
jcircumflex,
uni0136,
uni0137,
Lacute,
lacute,
uni013B,
uni013C,
Lcaron,
lcaron,
Ldot,
ldot,
Nacute,

glyphs = (
{
glyphname = .notdef;
layers = (
{
.lastUpdate = 743689192.615;
layerId = m01;
shapes = (
{
closed = 1;
nodes = (
(28,85,o),
(34,85,qs),
(480,85,ls),
(485,85,o),
(495,94,o),
(495,100,qs),
(495,546,ls),
(495,551,o),
(486,561,o),
(480,561,qs),
(34,561,ls),
(29,561,o),
(19,552,o),
(19,546,qs),
(19,100,ls),
(19,95,o)
);
},
{
closed = 1;
nodes = (
(431,497,l),
(431,150,l),
(84,150,l),
(84,497,l)
);
}
);
width = 513;
}
);
note = .notdef;
},
{
glyphname = exclam;
layers = (
{
.lastUpdate = 743689192.617;
layerId = m01;
shapes = (
{
closed = 1;
nodes = (
(154,779,o),
(145,770,o),
(140,758,o),
(140,752,qs),
(140,272,ls),
(140,260,o),
(150,250,qs),
(154,245,o),
(165,240,o),
(178,240,o),
(189,246,o),
(193,250,q),
(195,251,o),
(197,254,o),
(200,258,o),
(201,262,o),
(202,266,o),
(203,270,o),
(203,272,qs),
(203,752,ls),
(203,765,o),
(183,784,o),
(171,784,qs),
(165,784,o)
);
},
{
closed = 1;
nodes = (
(175,132,o),
(175,132,q),
(168,132,l),
(166,133,o),
(164,132,qs),
(153,128,o),
(146,120,qs),
(115,88,ls),
(105,78,o),
(105,54,o),
(115,44,qs),
(149,10,ls),
(159,0,o),
(171,0,qs),
(176,0,o),
(184,3,o),
(191,7,o),
(194,10,qs),
(228,44,ls),
(230,46,o),
(233,50,o),
(235,54,o),
(237,59,o),
(238,64,o),
(238,67,qs),
(238,78,o),
(227,88,qs),
(197,120,ls),
(194,124,o),
(183,131,o),
(177,132,qs),
(176,132,ls)
);
}
);
width = 342;
}
);
note = exclam;
unicode = 33;
},
{
glyphname = quotedbl;
layers = (
{
.lastUpdate = 743689192.617;
layerId = m01;
shapes = (
{
closed = 1;
nodes = (
(101,752,qs),
(101,512,ls),
(101,499,o),
(121,480,o),
(133,480,qs),
(139,480,o),
(151,486,o),
(155,490,qs),
(157,492,o),
(160,497,o),
(163,503,o),
(164,509,o),
(164,512,qs),
(164,752,ls),
(164,765,o),
(145,784,o),
(120,784,o),
(101,765,o)
);
},
{
closed = 1;
nodes = (
(311,752,qs),
(311,512,ls),
(311,499,o),
(330,480,o),
(356,480,o),
(375,499,o),
(375,512,qs),
(375,752,ls),
(375,765,o),
(356,784,o),
(330,784,o),
(311,765,o)
);
}
);
width = 473;
}
);
note = quotedbl;
unicode = 34;
},
{
glyphname = numbersign;
layers = (
{
.lastUpdate = 743689192.617;
layerId = m01;
shapes = (
{
closed = 1;
nodes = (
(563,915,qs),
(560,912,o),
(556,906,o),
(553,900,o),
(552,896,qs),
(460,475,l),
(319,475,l),
(409,883,l),
(409,886,l),
(409,889,ls),
(409,902,o),
(390,921,o),
(377,921,qs),
(365,921,o),
(357,915,qs),
(349,908,o),
(346,896,qs),
(254,475,l),
(137,475,ls),
(131,475,o),
(120,469,o),
(116,465,qs),
(106,456,o),
(106,432,o),
(124,412,o),
(137,412,qs),
(240,412,l),
(209,269,l),
(103,269,ls),
(90,269,o),
(71,250,o),
(71,238,qs),
(71,231,o),
(76,220,o),
(85,211,o),
(97,206,o),
(103,206,qs),
(196,206,l),
(106,-202,l),
(106,-205,l),
(106,-209,ls),
(106,-220,o),
(124,-240,o),
(150,-240,o),
(159,-232,qs),
(167,-226,o),
(169,-215,qs),
(260,206,l),
(401,206,l),
(311,-202,ls),
(311,-203,o),
(311,-205,qs),
(311,-209,ls),
(311,-212,o),
(312,-218,o),
(315,-224,o),
(319,-228,o),
(321,-230,qs),
(325,-235,o),
(337,-240,o),
(343,-240,qs),
(356,-240,o),
(365,-232,qs),
(373,-226,o),
(375,-215,qs),
(466,206,l),
(583,206,ls),
(596,206,o),
(615,226,o),
(615,238,qs),
(615,242,o),
(612,250,o),
(608,257,o),
(605,260,qs),
(603,262,o),
(598,265,o),
(592,268,o),
(586,269,o),
(583,269,qs),
(480,269,l),
(511,412,l),
(618,412,ls),
(630,412,o),
(649,432,o),
(649,444,qs),
(649,455,o),
(631,475,o),
(618,475,qs),
(525,475,l),
(615,883,l),
(615,886,l),
(615,889,ls),
(615,902,o),
(596,921,o),
(583,921,qs),
(571,921,o)
);
},
{
closed = 1;
nodes = (
(415,269,l),
(275,269,l),
(305,412,l),
(446,412,l)
);
}
);
width = 753;
}
);
note = numbersign;
unicode = 35;
},
{
glyphname = dollar;
layers = (
{
.lastUpdate = 743689192.617;
layerId = m01;
shapes = (
{
closed = 1;
nodes = (
(243,889,qs),
(243,774,l),
(161,747,l),
(161,747,l),
(153,744,o),
(149,740,qs),
(82,672,ls),
(71,662,o),
(71,649,qs),
(71,581,ls),
(71,573,o),
(75,565,qs),
(109,498,ls),
(111,494,o),
(115,490,qs),
(149,456,ls),
(154,451,o),
(158,449,qs),
(226,415,l),
(227,414,o),
(229,414,qs),
(230,414,l),
(243,409,l),
(243,76,l),
(189,93,l),
(125,157,ls),
(122,160,o),
(115,164,o),
(107,166,o),
(103,166,qs),
(90,166,o),
(71,147,o),
(71,122,o),
(81,112,qs),
(147,46,ls),
(153,39,o),
(162,36,qs),
(243,10,l),
(243,-106,ls),
(243,-112,o),
(248,-123,o),
(257,-132,o),
(268,-137,o),
(274,-137,qs),
(286,-137,o),
(306,-119,o),
(306,-106,qs),
(306,0,l),
(380,0,l),
(380,-106,ls),
(380,-112,o),
(385,-123,o),
(394,-132,o),
(405,-137,o),
(411,-137,qs),
(423,-137,o),
(443,-119,o),
(443,-106,qs),
(443,10,l),
(524,36,l),
(526,36,o),
(527,37,q),
(534,41,o),
(537,44,qs),
(605,112,ls),
(615,122,o),
(615,135,qs),
(615,238,ls),
(615,242,o),
(614,247,o),
(611,253,qs),
(577,320,l),
(575,322,o),
(573,326,o),
(571,328,qs),
(537,363,ls),
(536,364,o),
(535,365,q),
(528,369,l),
(460,403,l),
(459,403,o),
(459,403,q),
(457,404,o),
(456,404,q),
(443,409,l),
(443,708,l),
(497,690,l),
(561,627,l),
(562,626,l),
(562,626,o),
(562,626,q),
(564,624,o),
(569,621,o),
(575,619,o),
(580,618,o),
(583,618,qs),
(596,618,o),
(615,637,o),
(615,661,o),
(605,671,qs),
(538,739,ls),
(533,744,o),
(524,747,qs),
(443,774,l),
(443,889,ls),
(443,902,o),
(424,921,o),
(399,921,o),
(380,902,o),
(380,889,qs),
(380,784,l),
(306,784,l),
(306,889,ls),
(306,902,o),
(287,921,o),
(262,921,o),
(243,902,o)
);
},
{
closed = 1;
nodes = (
(380,430,l),
(306,455,l),
(306,721,l),
(380,721,l)
);
},
{
closed = 1;
nodes = (
(191,504,l),
(164,531,l),
(135,588,l),
(135,637,l),
(189,690,l),
(243,708,l),
(243,478,l)
);
},
{
closed = 1;
nodes = (
(380,63,l),
(306,63,l),
(306,388,l),
(380,364,l)
);
},
{
closed = 1;
nodes = (
(523,287,l),
(552,230,l),
(552,147,l),
(497,93,l),
(443,76,l),
(443,340,l),
(496,314,l)
);
}
);
width = 685;
}
);
note = dollar;
unicode = 36;
},
{
glyphname = percent;
layers = (
{
.lastUpdate = 743689192.617;
layerId = m01;
shapes = (
{
closed = 1;
nodes = (
(751,762,o),
(750,764,q),
(749,769,o),
(745,773,q),
(741,781,o),
(732,781,q),
(724,784,o),
(719,784,qs),
(712,785,o),
(705,781,qs),
(639,747,l),
(545,715,l),
(450,715,l),
(355,747,l),
(291,780,ls),
(289,781,o),
(285,782,o),
(282,783,o),
(279,784,o),
(276,784,o),
(274,784,qs),
(206,784,ls),
(198,784,o),
(189,779,qs),
(123,745,l),
(123,745,o),
(123,745,q),
(116,740,o),
(111,734,qs),
(110,733,o),
(109,732,q),
(74,663,ls),
(71,656,o),
(71,649,qs),
(71,581,ls),
(71,568,o),
(81,558,qs),
(149,490,ls),
(159,480,o),
(172,480,qs),
(240,480,ls),
(241,480,o),
(242,480,o),
(243,480,q),
(249,482,o),
(255,485,qs),
(323,518,ls),
(325,519,o),
(327,521,qs),
(331,525,o),
(335,530,q),
(335,532,o),
(336,533,q),
(371,601,ls),
(375,608,o),
(375,615,qs),
(375,674,l),
(435,654,ls),
(441,652,o),
(446,652,qs),
(549,652,ls),
(554,652,o),
(560,654,qs),
(609,670,l),
(80,53,ls),
(77,50,o),
(73,43,o),
(71,36,o),
(71,32,qs),
(71,19,o),
(90,0,o),
(104,0,qs),
(111,0,o),
(123,7,o),
(127,13,q),
(742,729,ls),
(747,734,o),
(752,745,o),
(752,752,qs),
(752,757,ls),
(752,759,o)
);
},
{
closed = 1;
nodes = (
(311,671,l),
(311,622,l),
(285,570,l),
(233,544,l),
(184,544,l),
(135,593,l),
(135,642,l),
(161,695,l),
(213,721,l),
(262,721,l)
);
},
{
closed = 1;
nodes = (
(575,303,o),
(572,301,q),
(569,300,l),
(568,301,o),
(567,300,q),
(500,266,l),
(498,264,ls),
(493,260,o),
(488,254,q),
(487,252,o),
(486,251,q),
(453,185,ls),
(449,177,o),
(449,169,qs),
(449,100,ls),
(449,87,o),
(458,78,qs),
(527,10,ls),
(537,0,o),
(549,0,qs),
(618,0,ls),
(625,0,o),
(633,4,qs),
(700,38,l),
(702,40,l),
(707,43,o),
(712,48,qs),
(715,52,l),
(748,120,ls),
(752,127,o),
(752,135,qs),
(752,203,ls),
(752,209,o),
(747,221,o),
(743,225,qs),
(674,294,ls),
(669,299,o),
(658,304,o),
(651,303,q),
(579,303,ls)
);
},
{
closed = 1;
nodes = (
(689,191,l),
(689,142,l),
(662,90,l),
(610,63,l),
(562,63,l),
(512,113,l),
(512,161,l),
(538,214,l),
(591,240,l),
(639,240,l)
);
}
);
width = 822;
}
);
note = percent;
unicode = 37;
},
{
glyphname = ampersand;
layers = (
{
.lastUpdate = 743689192.618;
layerId = m01;
shapes = (
{
closed = 1;
nodes = (
(712,459,l),
(733,480,l),
(742,480,l),
(757,465,l),
(757,443,ls),
(757,436,o),
(763,424,o),
(768,420,qs),
(770,418,o),
(775,415,o),
(780,413,o),
(786,412,o),
(789,412,qs),
(802,412,o),
(821,431,o),
(821,443,qs),
(821,478,ls),
(821,482,o),
(819,490,o),
(814,497,o),
(810,501,qs),
(777,534,ls),
(767,544,o),
(755,544,qs),
(721,544,ls),
(708,544,o),
(698,534,qs),
(664,500,l),
(661,496,o),
(658,490,qs),
(624,425,ls),
(623,423,o),
(622,421,qs),
(555,252,l),
(530,215,l),
(404,393,l),
(383,424,l),
(428,450,ls),
(430,451,o),
(431,452,qs),
(433,454,o),
(435,457,q),
(435,457,l),
(468,490,ls),
(470,492,o),
(473,496,o),
(474,498,qs),
(508,565,ls),
(512,573,o),
(512,581,qs),
(512,649,ls),
(512,651,o),
(512,655,o),
(511,658,o),
(509,661,o),
(508,663,qs),
(474,732,l),
(472,734,ls),
(468,740,o),
(462,744,q),
(462,745,l),
(461,746,o),
(460,746,q),
(393,780,ls),
(389,782,o),
(381,784,o),
(377,784,qs),
(376,784,ls),
(370,784,o),
(362,780,qs),
(295,746,l),
(292,744,ls),
(288,741,o),
(283,736,qs),
(281,734,o),
(280,732,qs),
(247,664,ls),
(243,657,o),
(243,649,qs),
(243,581,ls),
(243,576,o),
(245,571,qs),
(277,471,ls),
(279,464,o),
(280,462,qs),
(281,461,o),
(282,460,qs),
(292,446,l),
(156,368,l),
(155,368,o),
(153,366,q),
(151,365,o),
(149,363,qs),
(115,328,ls),
(111,324,o),
(109,320,qs),
(75,253,ls),
(74,251,o),
(73,248,o),
(72,244,o),
(71,240,o),
(71,238,qs),
(71,169,ls),
(71,167,o),
(71,163,o),
(72,160,o),
(73,157,o),
(74,155,qs),
(109,87,ls),
(111,84,o),
(113,80,q),
(114,79,o),
(115,78,qs),
(149,44,l),
(159,38,l),
(223,5,ls),
(232,0,o),
(240,0,qs),
(377,0,ls),
(381,0,o),
(388,2,o),
(391,4,qs),
(460,38,l),
(468,44,l),
(532,107,l),
(595,44,l),
(599,41,o),
(605,38,qs),
(669,5,ls),
(678,0,o),
(686,0,qs),
(755,0,ls),
(759,0,o),
(767,2,o),
(774,7,o),
(778,11,qs),
(811,44,ls),
(821,54,o),
(821,66,qs),
(821,100,ls),
(821,113,o),
(801,132,o),
(789,132,qs),
(783,132,o),
(772,127,o),
(767,123,qs),
(763,119,o),
(757,107,o),
(757,100,qs),
(757,79,l),
(742,63,l),
(694,63,l),
(637,92,l),
(573,155,l),
(570,160,l),
(608,216,ls),
(612,223,o),
(617,237,qs),
(680,396,l)
);
},
{
closed = 1;
nodes = (
(449,642,l),
(449,588,l),
(420,531,l),
(392,503,l),
(346,478,l),
(337,491,l),
(306,585,l),
(306,642,l),
(332,694,l),
(377,716,l),
(422,694,l)
);
},
{
closed = 1;
nodes = (
(351,357,o),
(351,357,q),
(492,159,l),
(489,155,l),
(427,92,l),
(370,63,l),
(248,63,l),
(191,92,l),
(164,119,l),
(135,176,l),
(135,230,l),
(164,287,l),
(192,315,l),
(328,392,l),
(350,357,l)
);
}
);
width = 891;
}
);
note = ampersand;
unicode = 38;
},
{
glyphname = quotesingle;
layers = (
{
.lastUpdate = 743689192.618;
layerId = m01;
shapes = (
{
closed = 1;
nodes = (
(115,568,ls),
(111,564,o),
(105,552,o),
(105,546,qs),
(106,535,o),
(116,525,qs),
(125,515,o),
(150,515,o),
(159,524,qs),
(194,558,ls),
(196,560,o),
(198,564,o),
(200,568,qs),
(233,635,l),
(237,640,o),
(238,645,qs),
(238,647,o),
(238,649,qs),
(238,718,ls),
(238,725,o),
(233,736,o),
(227,741,qs),
(194,774,ls),
(183,784,o),
(171,784,qs),
(165,784,o),
(154,779,o),
(149,774,qs),
(115,740,ls),
(105,730,o),
(105,706,o),
(115,696,qs),
(149,661,ls),
(158,652,o),
(171,652,q),
(145,600,l)
);
}
);
width = 342;
}
);
note = quotesingle;
unicode = 39;
},
{
glyphname = parenleft;
layers = (
{
.lastUpdate = 743689192.618;
layerId = m01;
shapes = (
{
closed = 1;
nodes = (
(141,589,l),
(106,415,l),
(106,413,o),
(106,412,qs),
(106,269,ls),
(106,267,o),
(106,266,qs),
(141,92,l),
(144,85,l),
(211,-48,l),
(211,-52,o),
(213,-55,qs),
(281,-158,l),
(284,-161,o),
(287,-163,qs),
(289,-164,l),
(355,-231,l),
(356,-232,ls),
(365,-240,o),
(389,-240,o),
(399,-230,qs),
(404,-226,o),
(410,-215,o),
(410,-208,qs),
(410,-196,o),
(400,-186,qs),
(334,-120,l),
(268,-21,l),
(201,112,l),
(169,275,l),
(169,406,l),
(201,569,l),
(268,702,l),
(334,801,l),
(400,867,l),
(400,868,l),
(401,868,o),
(401,868,q),
(405,873,o),
(409,883,o),
(409,889,qs),
(409,902,o),
(389,921,o),
(377,921,qs),
(366,921,o),
(356,913,q),
(356,912,l),
(355,912,o),
(355,912,q),
(289,845,l),
(287,844,ls),
(283,842,o),
(281,839,qs),
(213,736,ls),
(212,734,o),
(211,731,o),
(211,729,q),
(144,596,l)
);
}
);
width = 479;
}
);
note = parenleft;
unicode = 40;
},
{
glyphname = parenright;
layers = (
{
.lastUpdate = 743689192.618;
layerId = m01;
shapes = (
{
closed = 1;
nodes = (
(270,729,l),
(268,736,l),
(199,839,l),
(197,841,o),
(195,843,q),
(193,844,l),
(125,912,ls),
(116,921,o),
(90,921,o),
(71,902,o),
(71,877,o),
(81,867,qs),
(146,801,l),
(213,702,l),
(279,569,l),
(311,406,l),
(311,275,l),
(279,112,l),
(213,-21,l),
(146,-120,l),
(81,-186,ls),
(79,-188,o),
(76,-191,o),
(74,-196,o),
(72,-201,o),
(71,-205,o),
(71,-208,qs),
(71,-215,o),
(77,-226,o),
(81,-230,qs),
(91,-241,o),
(103,-241,qs),
(110,-241,o),
(121,-235,o),
(125,-231,qs),
(197,-160,ls),
(198,-159,o),
(199,-158,qs),
(268,-55,l),
(269,-52,o),
(270,-48,q),
(336,85,l),
(339,91,l),
(375,266,l),
(375,268,o),
(375,269,qs),
(375,412,ls),
(375,413,o),
(375,414,o),
(375,415,qs),
(339,590,l),
(336,596,l)
);
}
);
width = 479;
}
);
note = parenright;
unicode = 41;
},
{
glyphname = asterisk;
layers = (
{
.lastUpdate = 743689192.618;
layerId = m01;
shapes = (
{
closed = 1;
nodes = (
(243,546,qs),
(243,396,l),
(119,471,l),
(117,472,ls),
(110,475,o),
(102,475,qs),
(90,475,o),
(71,456,o),
(71,442,qs),
(71,434,o),
(79,420,o),
(86,416,q),
(87,416,l),
(213,340,l),
(87,265,ls),
(71,256,o),
(71,239,qs),
(71,233,o),
(76,221,o),
(81,216,qs),
(85,211,o),
(96,206,o),
(102,206,qs),
(112,206,o),
(119,210,q),
(119,210,o),
(119,210,q),
(243,285,l),
(243,135,ls),
(243,122,o),
(262,103,o),
(287,103,o),
(306,122,o),
(306,135,qs),
(306,285,l),
(429,210,ls),
(433,208,o),
(441,206,o),
(446,206,qs),
(459,206,o),
(478,225,o),
(478,239,qs),
(478,255,o),
(463,265,q),
(462,265,o),
(462,265,q),
(336,340,l),
(462,416,ls),
(478,425,o),
(478,442,qs),
(478,456,o),
(458,475,o),
(446,475,qs),
(435,475,o),
(429,471,qs),
(306,396,l),
(306,546,ls),
(306,559,o),
(287,578,o),
(262,578,o),
(243,559,o)
);
}
);
width = 547;
}
);
note = asterisk;
unicode = 42;
},
{
glyphname = plus;
layers = (
{
.lastUpdate = 743689192.618;
layerId = m01;
shapes = (
{
closed = 1;
nodes = (
(414,649,qs),
(414,372,l),
(137,372,ls),
(131,372,o),
(120,366,o),
(116,362,qs),
(106,353,o),
(106,329,o),
(124,309,o),
(137,309,qs),
(414,309,l),
(414,32,ls),
(414,19,o),
(433,0,o),
(459,0,o),
(478,19,o),
(478,32,qs),
(478,309,l),
(755,309,ls),
(767,309,o),
(786,329,o),
(786,341,qs),
(786,352,o),
(768,372,o),
(755,372,qs),
(478,372,l),
(478,649,ls),
(478,662,o),
(459,681,o),
(433,681,o),
(414,662,o)
);
}
);
width = 891;
}
);
note = plus;
unicode = 43;
},
{
glyphname = comma;
layers = (
{
.lastUpdate = 743689192.618;
layerId = m01;
shapes = (
{
closed = 1;
nodes = (
(120,127,o),
(115,122,qs),
(81,88,ls),
(71,78,o),
(71,53,o),
(82,43,qs),
(115,10,ls),
(122,3,o),
(131,1,q),
(81,-49,ls),
(71,-59,o),
(71,-84,o),
(90,-103,o),
(103,-103,qs),
(110,-103,o),
(121,-98,o),
(126,-92,q),
(194,-25,ls),
(204,-15,o),
(203,-2,qs),
(203,66,ls),
(203,82,o),
(192,91,qs),
(159,122,l),
(158,124,o),
(153,127,o),
(147,130,o),
(140,132,o),
(137,132,qs),
(131,132,o)
);
}
);
width = 273;
}
);
note = comma;
unicode = 44;
},
{
glyphname = hyphen;
layers = (
{
.lastUpdate = 743689192.618;
layerId = m01;
shapes = (
{
closed = 1;
nodes = (
(115,362,qs),
(106,353,o),
(106,341,qs),
(106,328,o),
(125,309,o),
(137,309,qs),
(428,309,ls),
(441,309,o),
(461,328,o),
(461,353,o),
(441,372,o),
(428,372,qs),
(137,372,ls),
(124,372,o)
);
}
);
width = 564;
}
);
note = hyphen;
unicode = 45;
},
{
glyphname = period;
layers = (
{
.lastUpdate = 743689192.618;
layerId = m01;
shapes = (
{
closed = 1;
nodes = (
(141,132,o),
(141,132,q),
(134,132,l),
(132,133,o),
(130,132,qs),
(119,128,o),
(112,120,qs),
(81,88,ls),
(71,78,o),
(71,53,o),
(82,43,qs),
(115,10,ls),
(125,0,o),
(149,0,o),
(159,11,qs),
(194,44,ls),
(204,54,o),
(204,66,qs),
(204,72,o),
(198,84,o),
(194,88,qs),
(163,120,ls),
(162,121,o),
(160,124,o),
(157,126,o),
(153,128,o),
(149,130,o),
(145,132,o),
(143,132,qs),
(142,132,ls)
);
}
);
width = 273;
}
);
note = period;
unicode = 46;
},
{
glyphname = slash;
layers = (
{
.lastUpdate = 743689192.618;
layerId = m01;
shapes = (
{
closed = 1;
nodes = (
(39,-195,o),
(39,-197,q),
(37,-206,o),
(37,-216,o),
(40,-224,o),
(44,-227,o),
(47,-230,qs),
(51,-235,o),
(64,-240,o),
(71,-240,qs),
(88,-240,o),
(97,-223,qs),
(714,874,l),
(715,875,o),
(715,877,q),
(718,886,o),
(718,892,qs),
(718,902,o),
(699,921,o),
(684,921,qs),
(667,921,o),
(658,904,qs),
(41,-193,l)
);
}
);
width = 753;
}
);
note = slash;
unicode = 47;
},
{
glyphname = zero;
layers = (
{
.lastUpdate = 743689192.618;
layerId = m01;
shapes = (
{
closed = 1;
nodes = (
(295,782,o),
(293,780,q),
(198,748,l),
(185,746,o),
(178,735,qs),
(110,633,l),
(110,631,o),
(109,629,qs),
(107,623,o),
(106,620,qs),
(71,450,l),
(71,448,o),
(71,447,qs),
(71,337,l),
(71,336,ls),
(71,335,o),
(71,334,qs),
(106,164,ls),
(107,161,o),
(109,155,q),
(109,153,o),
(110,151,qs),
(178,49,ls),
(181,44,o),
(191,37,o),
(196,36,q),
(299,2,ls),
(301,1,o),
(306,0,o),
(309,0,qs),
(377,0,ls),
(382,0,o),
(389,2,qs),
(489,35,ls),
(501,38,o),
(508,49,qs),
(576,152,ls),
(577,153,o),
(577,153,q),
(577,155,l),
(579,159,o),
(580,162,qs),
(615,334,l),
(615,337,l),
(615,447,l),
(615,448,ls),
(615,449,o),
(615,450,qs),
(581,621,l),
(579,626,l),
(577,629,l),
(577,630,o),
(576,632,o),
(576,633,q),
(508,736,l),
(507,736,l),
(501,743,o),
(490,747,qs),
(387,782,ls),
(382,784,o),
(360,784,qs),
(303,784,ls),
(300,784,o)
);
},
{
closed = 1;
nodes = (
(460,690,l),
(519,602,l),
(552,440,l),
(552,344,l),
(519,182,l),
(460,93,l),
(373,63,l),
(313,63,l),
(226,93,l),
(167,182,l),
(135,344,l),
(135,440,l),
(167,602,l),
(226,690,l),
(313,721,l),
(373,721,l)
);
}
);
width = 685;
}
);
note = zero;
unicode = 48;
},
{
glyphname = one;
layers = (
{
.lastUpdate = 743689192.618;
layerId = m01;
shapes = (
{
closed = 1;
nodes = (
(354,773,q),
(255,675,l),
(192,643,l),
(173,635,o),
(173,617,qs),
(173,602,o),
(193,583,o),
(205,583,qs),
(214,583,o),
(222,587,qs),
(287,621,ls),
(289,622,o),
(295,625,o),
(297,627,qs),
(346,676,l),
(346,32,ls),
(346,19,o),
(365,0,o),
(390,0,o),
(409,19,o),
(409,32,qs),
(409,752,ls),
(409,765,o),
(398,775,qs),
(388,784,o),
(376,784,qs),
(363,784,o)
);
}
);
width = 685;
}
);
note = one;
unicode = 49;
},
{
glyphname = two;
layers = (
{
.lastUpdate = 743689192.618;
layerId = m01;
shapes = (
{
closed = 1;
nodes = (
(581,539,o),
(581,546,qs),
(581,615,ls),
(581,617,o),
(581,618,qs),
(580,622,o),
(578,626,o),
(576,630,qs),
(543,696,ls),
(542,698,o),
(541,701,o),
(538,705,o),
(537,706,qs),
(502,740,ls),
(498,744,o),
(494,746,qs),
(427,780,ls),
(419,784,o),
(412,784,qs),
(274,784,ls),
(267,784,o),
(259,780,qs),
(192,746,ls),
(190,745,o),
(186,742,o),
(184,740,qs),
(149,706,ls),
(148,705,o),
(147,704,q),
(143,697,l),
(109,629,ls),
(106,622,o),
(106,615,qs),
(106,581,ls),
(106,568,o),
(125,549,o),
(137,549,qs),
(144,549,o),
(155,554,o),
(164,563,o),
(169,575,o),
(169,581,qs),
(169,608,l),
(198,665,l),
(225,692,l),
(282,721,l),
(404,721,l),
(461,692,l),
(488,665,l),
(517,608,l),
(517,554,l),
(487,494,l),
(421,395,l),
(81,54,ls),
(79,52,o),
(75,47,o),
(72,41,o),
(71,35,o),
(71,32,qs),
(71,19,o),
(90,0,o),
(103,0,qs),
(583,0,ls),
(596,0,o),
(615,19,o),
(615,44,o),
(596,63,o),
(583,63,qs),
(179,63,l),
(471,355,l),
(472,356,l),
(473,356,o),
(473,357,q),
(542,460,l),
(543,463,o),
(544,467,q),
(576,531,l)
);
}
);
width = 685;
}
);
note = two;
unicode = 50;
},
{
glyphname = three;
layers = (
{
.lastUpdate = 743689192.618;
layerId = m01;
shapes = (
{
closed = 1;
nodes = (
(154,779,o),
(145,770,o),
(140,758,o),
(140,752,qs),
(140,740,o),
(159,721,o),
(172,721,qs),
(486,721,l),
(318,498,ls),
(311,489,o),
(311,478,qs),
(311,465,o),
(330,446,o),
(343,446,qs),
(439,446,l),
(496,417,l),
(522,391,l),
(552,302,l),
(552,242,l),
(522,153,l),
(462,93,l),
(373,63,l),
(279,63,l),
(189,93,l),
(164,119,l),
(131,183,l),
(123,202,o),
(105,202,qs),
(90,202,o),
(71,183,o),
(71,171,qs),
(71,161,o),
(75,153,qs),
(109,88,l),
(111,82,o),
(115,78,qs),
(147,46,ls),
(153,39,o),
(162,36,qs),
(263,2,ls),
(269,0,o),
(274,0,qs),
(377,0,ls),
(382,0,o),
(389,2,qs),
(490,36,l),
(495,38,l),
(499,41,o),
(502,44,qs),
(569,110,l),
(573,113,o),
(578,121,o),
(579,125,qs),
(613,228,ls),
(615,233,o),
(615,238,qs),
(615,306,ls),
(615,311,o),
(613,318,qs),
(579,419,l),
(579,420,o),
(578,423,o),
(577,424,qs),
(574,428,o),
(571,431,qs),
(537,466,ls),
(536,467,o),
(535,468,q),
(528,472,l),
(460,506,ls),
(453,509,o),
(446,509,qs),
(406,509,l),
(574,732,ls),
(581,741,o),
(581,752,qs),
(581,765,o),
(562,784,o),
(549,784,qs),
(172,784,ls),
(166,784,o)
);
}
);
width = 685;
}
);
note = three;
unicode = 51;
},
{
glyphname = four;
layers = (
{
.lastUpdate = 743689192.619;
layerId = m01;
shapes = (
{
closed = 1;
nodes = (
(419,768,q),
(78,291,ls),
(71,282,o),
(71,272,qs),
(71,260,o),
(81,250,qs),
(85,245,o),
(97,240,o),
(103,240,qs),
(414,240,l),
(414,32,ls),
(414,19,o),
(433,0,o),
(459,0,o),
(478,19,o),
(478,32,qs),
(478,240,l),
(618,240,ls),
(630,240,o),
(649,260,o),
(649,272,qs),
(649,283,o),
(631,303,o),
(618,303,qs),
(478,303,l),
(478,752,l),
(478,753,ls),
(478,754,o),
(478,754,q),
(477,758,o),
(471,769,o),
(470,771,qs),
(467,777,l),
(466,778,ls),
(463,781,o),
(459,782,q),
(458,783,o),
(456,783,qs),
(450,784,l),
(446,784,ls),
(427,784,o)
);
},
{
closed = 1;
nodes = (
(164,303,l),
(414,653,l),
(414,303,l)
);
}
);
width = 685;
}
);
note = four;
unicode = 52;
},
{
glyphname = five;
layers = (
{
.lastUpdate = 743689192.619;
layerId = m01;
shapes = (
{
closed = 1;
nodes = (
(152,777,qs),
(149,775,o),
(144,768,o),
(141,761,o),
(140,757,qs),
(140,756,l),
(106,448,ls),
(106,447,o),
(106,446,q),
(106,446,l),
(106,443,ls),
(106,432,o),
(116,422,qs),
(120,417,o),
(132,411,o),
(139,411,qs),
(142,411,o),
(148,413,o),
(153,416,o),
(157,419,o),
(159,421,qs),
(188,450,l),
(279,480,l),
(373,480,l),
(462,450,l),
(522,391,l),
(552,302,l),
(552,242,l),
(522,153,l),
(462,93,l),
(373,63,l),
(279,63,l),
(189,93,l),
(164,119,l),
(131,183,l),
(123,202,o),
(105,202,qs),
(90,202,o),
(71,183,o),
(71,171,qs),
(71,161,o),
(75,153,qs),
(109,88,l),
(111,82,o),
(115,78,qs),
(147,46,ls),
(153,39,o),
(162,36,qs),
(263,2,ls),
(269,0,o),
(274,0,qs),
(377,0,ls),
(382,0,o),
(389,2,qs),
(490,36,l),
(495,38,l),
(499,41,o),
(502,44,qs),
(569,110,l),
(573,113,o),
(578,121,o),
(579,125,qs),
(613,228,ls),
(615,233,o),
(615,238,qs),
(615,306,ls),
(615,311,o),
(613,318,qs),
(579,419,l),
(579,420,o),
(578,423,o),
(577,424,qs),
(574,428,o),
(571,431,qs),
(504,498,ls),
(499,504,o),
(490,507,qs),
(387,542,ls),
(382,544,o),
(377,544,qs),
(274,544,l),
(269,545,o),
(262,542,qs),
(177,512,l),
(200,721,l),
(515,721,ls),
(527,721,o),
(546,740,o),
(546,764,o),
(528,784,o),
(515,784,qs),
(172,784,ls),
(160,784,o)
);
}
);
width = 685;
}
);
note = five;
unicode = 53;
},
{
glyphname = six;
layers = (
{
.lastUpdate = 743689192.619;
layerId = m01;
shapes = (
{
closed = 1;
nodes = (
(331,781,qs),
(232,748,l),
(220,746,o),
(213,735,qs),
(144,633,l),
(143,629,l),
(142,627,ls),
(141,624,o),
(140,620,qs),
(106,450,ls),
(106,449,o),
(106,448,o),
(106,447,qs),
(106,272,ls),
(106,266,o),
(108,261,q),
(141,127,l),
(142,127,o),
(142,126,qs),
(143,121,o),
(146,115,o),
(149,112,qs),
(216,46,l),
(219,42,o),
(227,37,o),
(231,36,qs),
(332,2,ls),
(338,0,o),
(343,0,qs),
(377,0,ls),
(382,0,o),
(389,2,qs),
(490,36,l),
(495,38,l),
(499,41,o),
(502,44,qs),
(569,110,l),
(573,113,o),
(578,121,o),
(579,125,qs),
(613,228,ls),
(615,233,o),
(615,238,qs),
(615,272,ls),
(615,277,o),
(613,283,qs),
(579,384,l),
(578,387,l),
(574,394,o),
(571,397,qs),
(504,464,ls),
(499,470,o),
(490,473,qs),
(387,507,l),
(386,508,o),
(382,509,o),
(379,509,o),
(377,509,qs),
(343,509,ls),
(338,509,o),
(332,507,qs),
(231,473,l),
(230,473,o),
(230,473,q),
(222,470,o),
(218,466,qs),
(169,417,l),
(169,440,l),
(201,602,l),
(260,690,l),
(347,721,l),
(408,721,l),
(493,692,l),
(521,637,ls),
(523,632,o),
(529,623,o),
(540,616,o),
(547,616,qs),
(562,616,o),
(574,628,qs),
(589,643,o),
(576,664,q),
(543,732,ls),
(537,743,o),
(524,747,qs),
(424,781,ls),
(417,784,o),
(412,784,qs),
(343,784,ls),
(338,784,o)
);
},
{
closed = 1;
nodes = (
(462,416,l),
(522,357,l),
(552,268,l),
(552,242,l),
(522,153,l),
(462,93,l),
(373,63,l),
(347,63,l),
(258,93,l),
(200,150,l),
(171,270,l),
(199,357,l),
(258,416,l),
(347,446,l),
(373,446,l)
);
}
);
width = 685;
}
);
note = six;
unicode = 54;
},
{
glyphname = seven;
layers = (
{
.lastUpdate = 743689192.619;
layerId = m01;
shapes = (
{
closed = 1;
nodes = (
(609,772,qs),
(608,773,l),
(607,773,o),
(607,773,q),
(606,774,o),
(605,775,qs),
(603,778,o),
(601,779,qs),
(593,783,o),
(583,784,q),
(103,784,ls),
(90,784,o),
(71,765,o),
(71,740,o),
(90,721,o),
(103,721,qs),
(533,721,l),
(215,50,ls),
(209,39,o),
(209,31,qs),
(209,19,o),
(218,9,qs),
(226,-1,o),
(242,-1,qs),
(261,-1,o),
(269,19,q),
(612,736,ls),
(615,743,o),
(615,752,qs),
(615,758,o),
(613,764,qs),
(612,769,o)
);
}
);
width = 685;
}
);
note = seven;
unicode = 55;
},
{
glyphname = eight;
layers = (
{
.lastUpdate = 743689192.619;
layerId = m01;
shapes = (
{
closed = 1;
nodes = (
(261,782,o),
(259,780,q),
(163,748,l),
(157,747,o),
(146,737,o),
(143,732,qs),
(109,663,ls),
(108,660,o),
(106,653,o),
(106,649,qs),
(106,581,ls),
(106,574,o),
(110,566,qs),
(143,498,ls),
(144,496,o),
(146,494,qs),
(150,490,o),
(155,486,qs),
(156,485,o),
(157,484,q),
(158,484,o),
(158,484,q),
(226,449,l),
(226,449,l),
(196,439,ls),
(193,438,o),
(191,437,qs),
(190,436,o),
(187,434,o),
(185,432,o),
(184,431,qs),
(115,363,ls),
(114,362,o),
(113,361,qs),
(110,357,o),
(109,354,q),
(74,286,l),
(73,283,o),
(71,276,o),
(71,272,qs),
(71,169,ls),
(71,162,o),
(76,153,qs),
(109,88,l),
(111,82,o),
(115,78,qs),
(147,46,ls),
(153,39,o),
(162,36,qs),
(263,2,ls),
(269,0,o),
(274,0,qs),
(412,0,ls),
(417,0,o),
(423,2,qs),
(524,36,l),
(526,36,o),
(527,37,q),
(534,41,o),
(537,44,qs),
(571,78,ls),
(572,79,o),
(573,80,q),
(576,87,l),
(611,155,ls),
(615,162,o),
(615,169,qs),
(615,272,ls),
(615,280,o),
(610,289,qs),
(577,353,l),
(575,359,o),
(571,363,qs),
(505,428,l),
(503,431,o),
(499,435,o),
(495,437,o),
(492,438,o),
(490,439,qs),
(460,449,l),
(528,484,l),
(529,485,o),
(529,485,q),
(536,489,o),
(541,495,qs),
(543,498,l),
(576,566,l),
(581,573,o),
(581,581,qs),
(581,649,ls),
(581,651,o),
(581,652,q),
(579,658,o),
(576,664,qs),
(543,732,ls),
(537,743,o),
(524,747,qs),
(420,783,ls),
(417,784,o),
(378,784,qs),
(269,784,ls),
(266,784,o)
);
},
{
closed = 1;
nodes = (
(493,693,l),
(517,642,l),
(517,588,l),
(490,535,l),
(434,507,l),
(343,485,l),
(252,507,l),
(195,535,l),
(169,588,l),
(169,642,l),
(194,692,l),
(279,721,l),
(408,721,l)
);
},
{
closed = 1;
nodes = (
(462,382,l),
(523,321,l),
(552,264,l),
(552,176,l),
(523,119,l),
(497,93,l),
(408,63,l),
(279,63,l),
(189,93,l),
(164,119,l),
(135,176,l),
(135,264,l),
(164,321,l),
(224,382,l),
(318,413,l),
(343,418,l),
(368,413,l)
);
}
);
width = 685;
}
);
note = eight;
unicode = 56;
},
{
glyphname = nine;
layers = (
{
.lastUpdate = 743689192.619;
layerId = m01;
shapes = (
{
closed = 1;
nodes = (
(108,399,l),
(111,391,o),
(115,387,qs),
(182,320,ls),
(187,314,o),
(196,311,qs),
(297,277,l),
(303,274,o),
(309,274,qs),
(343,274,ls),
(344,274,o),
(346,274,q),
(349,275,o),
(352,276,o),
(354,277,qs),
(456,311,l),
(458,311,l),
(464,314,o),
(468,318,qs),
(517,367,l),
(517,344,l),
(485,182,l),
(426,93,l),
(339,63,l),
(279,63,l),
(194,92,l),
(166,148,ls),
(157,167,o),
(139,167,qs),
(126,167,o),
(116,158,qs),
(106,150,o),
(106,137,qs),
(106,127,o),
(110,120,qs),
(115,109,o),
(138,64,o),
(150,39,o),
(162,36,q),
(263,2,ls),
(269,0,o),
(274,0,qs),
(343,0,ls),
(344,0,o),
(345,0,qs),
(348,0,o),
(355,2,qs),
(455,35,ls),
(457,36,o),
(460,37,o),
(463,38,o),
(466,41,o),
(469,43,o),
(472,47,o),
(473,49,qs),
(542,151,l),
(542,152,o),
(543,154,o),
(543,155,q),
(545,161,o),
(546,164,qs),
(581,334,l),
(581,336,o),
(581,337,qs),
(581,512,ls),
(581,518,o),
(579,523,q),
(545,657,l),
(544,658,o),
(544,658,q),
(544,659,o),
(544,659,q),
(542,663,o),
(540,668,o),
(537,671,qs),
(470,738,ls),
(465,744,o),
(456,747,qs),
(353,782,ls),
(351,783,o),
(346,784,o),
(343,784,qs),
(309,784,ls),
(303,784,o),
(298,782,qs),
(195,747,l),
(194,747,l),
(184,740,l),
(117,673,ls),
(111,668,o),
(108,659,qs),
(73,556,ls),
(71,551,o),
(71,546,qs),
(71,512,ls),
(71,506,o),
(74,498,qs),
(108,399,l)
);
},
{
closed = 1;
nodes = (
(428,690,l),
(486,633,l),
(515,514,l),
(487,427,l),
(428,368,l),
(339,338,l),
(313,338,l),
(224,368,l),
(165,427,l),
(135,516,l),
(135,542,l),
(165,631,l),
(224,690,l),
(313,721,l),
(339,721,l)
);
}
);
width = 685;
}
);
note = nine;
unicode = 57;
},
{
glyphname = colon;
layers = (
{
.lastUpdate = 743689192.619;
layerId = m01;
shapes = (
{
closed = 1;
nodes = (
(141,372,o),
(141,372,q),
(134,372,l),
(132,373,o),
(130,372,qs),
(119,368,o),
(112,360,qs),
(81,328,ls),
(76,323,o),
(71,312,o),
(71,306,qs),
(71,294,o),
(81,284,qs),
(115,250,ls),
(120,245,o),
(131,240,o),
(144,240,o),
(154,246,o),
(159,251,qs),
(194,284,ls),
(204,294,o),
(204,318,o),
(194,328,qs),
(163,360,l),
(160,364,o),
(149,371,o),
(143,372,qs),
(142,372,ls)
);
},
{
closed = 1;
nodes = (
(141,132,o),
(141,132,q),
(134,132,l),
(132,133,o),
(130,132,qs),
(119,128,o),
(112,120,qs),
(81,88,ls),
(71,78,o),
(71,53,o),
(82,43,qs),
(115,10,ls),
(125,0,o),
(149,0,o),
(159,11,qs),
(194,44,ls),
(204,54,o),
(204,66,qs),
(204,72,o),
(198,84,o),
(194,88,qs),
(163,120,ls),
(162,121,o),
(160,124,o),
(157,126,o),
(153,128,o),
(149,130,o),
(145,132,o),
(143,132,qs),
(142,132,ls)
);
}
);
width = 273;
}
);
note = colon;
unicode = 58;
},
{
glyphname = semicolon;
layers = (
{
.lastUpdate = 743689192.619;
layerId = m01;
shapes = (
{
closed = 1;
nodes = (
(141,372,o),
(141,372,q),
(134,372,l),
(132,373,o),
(130,372,qs),
(119,368,o),
(112,360,qs),
(81,328,ls),
(76,323,o),
(71,312,o),
(71,306,qs),
(71,294,o),
(81,284,qs),
(115,250,ls),
(120,245,o),
(131,240,o),
(144,240,o),
(154,246,o),
(159,251,qs),
(194,284,ls),
(204,294,o),
(204,318,o),
(194,328,qs),
(163,360,l),
(160,364,o),
(149,371,o),
(143,372,qs),
(142,372,ls)
);
},
{
closed = 1;
nodes = (
(120,127,o),
(115,122,qs),
(81,88,ls),
(71,78,o),
(71,53,o),
(82,43,qs),
(115,10,ls),
(122,3,o),
(131,1,q),
(81,-49,ls),
(71,-59,o),
(71,-84,o),
(90,-103,o),
(103,-103,qs),
(110,-103,o),
(121,-98,o),
(126,-92,q),
(194,-25,ls),
(204,-15,o),
(203,-2,qs),
(203,66,ls),
(203,82,o),
(192,91,qs),
(159,122,l),
(158,124,o),
(153,127,o),
(147,130,o),
(140,132,o),
(137,132,qs),
(131,132,o)
);
}
);
width = 273;
}
);
note = semicolon;
unicode = 59;
},
{
glyphname = less;
layers = (
{
.lastUpdate = 743689192.619;
layerId = m01;
shapes = (
{
closed = 1;
nodes = (
(121,368,l),
(121,368,l),
(118,366,o),
(114,363,o),
(111,358,o),
(108,354,o),
(107,349,o),
(105,344,o),
(105,341,qs),
(105,332,o),
(113,317,o),
(122,312,qs),
(670,4,l),
(671,3,o),
(673,2,o),
(674,2,qs),
(683,0,o),
(689,0,qs),
(699,0,o),
(718,19,o),
(718,34,qs),
(718,42,o),
(709,56,o),
(701,60,qs),
(203,340,l),
(701,621,ls),
(706,624,o),
(713,631,o),
(718,641,o),
(718,647,qs),
(718,661,o),
(700,681,o),
(687,681,qs),
(684,681,ls),
(682,681,o),
(679,681,o),
(677,680,o),
(674,678,o),
(672,678,o),
(670,677,qs)
);
}
);
width = 822;
}
);
note = less;
unicode = 60;
},
{
glyphname = equal;
layers = (
{
.lastUpdate = 743689192.619;
layerId = m01;
shapes = (
{
closed = 1;
nodes = (
(115,465,qs),
(106,456,o),
(106,444,qs),
(106,431,o),
(125,412,o),
(137,412,qs),
(755,412,ls),
(768,412,o),
(786,432,o),
(786,456,o),
(767,475,o),
(755,475,qs),
(137,475,ls),
(124,475,o)
);
},
{
closed = 1;
nodes = (
(115,259,qs),
(111,255,o),
(106,244,o),
(106,238,qs),
(106,231,o),
(111,220,o),
(120,211,o),
(131,206,o),
(137,206,qs),
(755,206,ls),
(761,206,o),
(773,211,o),
(777,216,qs),
(780,219,o),
(784,226,o),
(786,234,o),
(786,238,qs),
(786,244,o),
(780,256,o),
(776,260,qs),
(774,262,o),
(770,265,o),
(764,268,o),
(758,269,o),
(755,269,qs),
(137,269,ls),
(124,269,o)
);
}
);
width = 891;
}
);
note = equal;
unicode = 61;
},
{
glyphname = greater;
layers = (
{
.lastUpdate = 743689192.619;
layerId = m01;
shapes = (
{
closed = 1;
nodes = (
(133,681,qs),
(122,679,o),
(105,664,o),
(105,652,qs),
(105,642,o),
(112,626,o),
(122,621,qs),
(621,340,l),
(121,59,ls),
(106,51,o),
(106,34,qs),
(106,20,o),
(124,0,o),
(134,0,qs),
(137,0,o),
(144,1,o),
(149,2,q),
(150,3,o),
(152,4,o),
(153,4,q),
(701,312,ls),
(709,316,o),
(718,332,o),
(718,350,o),
(710,364,o),
(701,369,qs),
(153,677,l),
(152,678,o),
(151,678,o),
(150,678,q),
(142,681,o),
(138,681,qs),
(135,681,ls),
(134,681,o)
);
}
);
width = 822;
}
);
note = greater;
unicode = 62;
},
{
glyphname = question;
layers = (
{
.lastUpdate = 743689192.619;
layerId = m01;
shapes = (
{
closed = 1;
nodes = (
(229,783,o),
(226,781,qs),
(159,746,l),
(153,744,o),
(149,740,qs),
(115,706,ls),
(114,705,o),
(113,704,qs),
(112,702,o),
(110,698,o),
(109,697,q),
(74,629,ls),
(73,627,o),
(72,622,o),
(71,618,o),
(71,615,qs),
(71,581,ls),
(71,568,o),
(90,549,o),
(115,549,o),
(125,559,qs),
(130,563,o),
(135,575,o),
(135,581,qs),
(135,608,l),
(164,665,l),
(191,692,l),
(248,721,l),
(370,721,l),
(427,692,l),
(454,665,l),
(483,608,l),
(483,554,l),
(454,497,l),
(427,470,l),
(295,403,ls),
(287,399,o),
(277,384,o),
(277,375,qs),
(277,272,l),
(276,260,o),
(286,250,qs),
(290,245,o),
(296,242,qs),
(302,240,o),
(308,240,qs),
(321,240,o),
(340,259,o),
(340,272,qs),
(340,355,l),
(460,415,l),
(462,417,o),
(466,419,o),
(468,421,qs),
(501,455,ls),
(502,456,o),
(504,457,o),
(508,462,o),
(509,464,qs),
(542,532,ls),
(544,535,o),
(546,542,o),
(546,546,qs),
(546,615,ls),
(546,623,o),
(542,631,qs),
(509,697,l),
(509,698,o),
(508,699,qs),
(505,703,o),
(502,706,qs),
(468,740,ls),
(464,744,o),
(460,746,qs),
(391,781,ls),
(389,782,o),
(384,783,o),
(379,784,o),
(377,784,qs),
(240,784,ls),
(236,784,o)
);
},
{
closed = 1;
nodes = (
(312,132,qs),
(305,132,ls),
(304,132,o),
(302,132,o),
(301,132,q),
(290,128,o),
(283,120,qs),
(252,88,ls),
(242,78,o),
(242,54,o),
(252,44,qs),
(287,10,ls),
(297,0,o),
(321,0,o),
(331,10,qs),
(365,44,ls),
(375,55,o),
(375,67,qs),
(375,73,o),
(369,83,o),
(364,88,qs),
(334,120,ls),
(332,122,o),
(326,127,o),
(318,131,o),
(314,132,qs),
(313,132,o)
);
}
);
width = 616;
}
);
note = question;
unicode = 63;
},
{
glyphname = at;
layers = (
{
.lastUpdate = 743689192.62;
layerId = m01;
shapes = (
{
closed = 1;
nodes = (
(398,439,o),
(397,438,q),
(329,403,ls),
(325,401,o),
(321,397,qs),
(287,363,ls),
(285,361,o),
(282,356,o),
(280,353,q),
(280,352,o),
(279,350,qs),
(245,249,l),
(243,238,l),
(243,135,ls),
(243,128,o),
(246,121,qs),
(280,52,l),
(281,51,o),
(282,50,q),
(284,46,o),
(290,41,o),
(294,39,q),
(295,39,o),
(295,39,q),
(360,5,ls),
(369,0,o),
(377,0,qs),
(480,0,ls),
(487,0,o),
(494,4,qs),
(563,38,l),
(564,39,o),
(566,40,q),
(570,38,l),
(633,6,l),
(637,3,o),
(642,1,o),
(647,0,o),
(648,0,o),
(652,0,qs),
(721,0,ls),
(728,0,o),
(739,5,o),
(744,11,qs),
(811,78,l),
(814,82,o),
(818,88,q),
(818,89,o),
(819,91,qs),
(853,192,l),
(853,194,o),
(854,197,o),
(855,201,o),
(855,203,qs),
(855,272,ls),
(855,277,o),
(853,283,qs),
(819,384,l),
(819,386,o),
(818,387,qs),
(817,388,l),
(782,457,l),
(781,460,o),
(779,464,q),
(778,464,o),
(778,465,q),
(777,466,l),
(708,534,ls),
(706,536,o),
(702,539,o),
(700,540,qs),
(631,575,l),
(630,575,l),
(630,575,o),
(628,576,o),
(627,576,q),
(526,610,ls),
(523,611,o),
(518,612,o),
(515,612,qs),
(412,612,ls),
(409,612,o),
(404,611,o),
(402,610,qs),
(299,576,l),
(298,576,o),
(296,575,o),
(296,575,q),
(295,575,l),
(226,540,ls),
(224,539,o),
(220,536,o),
(218,534,qs),
(149,466,ls),
(147,464,o),
(146,462,o),
(144,459,o),
(143,456,qs),
(109,388,l),
(109,388,l),
(109,387,o),
(108,386,o),
(108,385,q),
(73,284,l),
(73,282,o),
(72,279,o),
(71,276,o),
(71,273,o),
(71,272,qs),
(71,169,ls),
(71,164,o),
(73,159,qs),
(108,56,l),
(109,53,l),
(109,52,l),
(143,-16,l),
(147,-23,l),
(148,-23,o),
(148,-24,q),
(149,-25,o),
(149,-25,q),
(218,-93,o),
(222,-97,qs),
(226,-100,l),
(295,-134,l),
(296,-134,o),
(296,-134,q),
(298,-135,o),
(299,-135,q),
(401,-169,l),
(404,-171,o),
(408,-172,qs),
(410,-172,o),
(412,-172,qs),
(515,-172,ls),
(516,-172,o),
(517,-172,qs),
(520,-172,o),
(528,-168,q),
(627,-135,l),
(629,-135,o),
(630,-134,q),
(631,-134,l),
(700,-100,l),
(704,-97,o),
(709,-92,qs),
(743,-59,ls),
(753,-49,o),
(753,-37,qs),
(753,-31,o),
(747,-19,o),
(742,-14,qs),
(732,-5,o),
(720,-5,qs),
(714,-5,o),
(702,-11,o),
(698,-15,qs),
(667,-45,l),
(606,-76,l),
(510,-108,l),
(416,-108,l),
(320,-76,l),
(259,-45,l),
(198,16,l),
(167,78,l),
(135,173,l),
(135,268,l),
(167,363,l),
(198,424,l),
(259,486,l),
(320,517,l),
(416,549,l),
(510,549,l),
(606,517,l),
(667,486,l),
(728,424,l),
(760,363,l),
(792,268,l),
(792,207,l),
(762,118,l),
(708,63,l),
(665,63,l),
(649,79,l),
(649,132,l),
(684,405,l),
(684,407,l),
(684,409,ls),
(684,422,o),
(665,441,o),
(652,441,qs),
(649,441,o),
(643,440,o),
(637,438,o),
(634,436,q),
(632,437,o),
(629,439,o),
(625,440,o),
(620,441,o),
(618,441,qs),
(606,442,o),
(598,435,qs),
(589,428,o),
(586,414,qs),
(586,413,l),
(585,409,l),
(530,437,ls),
(522,441,o),
(515,441,qs),
(412,441,ls),
(407,441,o),
(402,439,q),
(401,439,o)
);
},
{
closed = 1;
nodes = (
(559,351,l),
(575,321,l),
(553,144,l),
(525,90,l),
(473,63,l),
(390,63,l),
(369,85,l),
(340,142,l),
(340,233,l),
(371,323,l),
(424,377,l),
(507,377,l)
);
}
);
width = 959;
}
);
note = at;
unicode = 64;
},
{
glyphname = A;
layers = (
{
.lastUpdate = 743689192.62;
layerId = m01;
shapes = (
{
closed = 1;
nodes = (
(298,784,o),
(290,779,qs),
(285,776,o),
(280,768,o),
(278,761,qs),
(5,44,ls),
(3,40,o),
(3,31,qs),
(3,19,o),
(21,-1,o),
(38,-1,qs),
(48,-1,o),
(63,11,o),
(65,21,q),
(147,240,l),
(470,240,l),
(553,21,l),
(554,16,o),
(561,6,o),
(573,-1,o),
(580,-1,qs),
(596,-1,o),
(615,18,o),
(615,30,qs),
(615,34,o),
(615,40,o),
(614,42,qs),
(340,760,l),
(339,765,o),
(334,774,o),
(327,780,o),
(316,784,o),
(311,784,qs),
(303,784,ls)
);
},
{
closed = 1;
nodes = (
(173,303,l),
(309,663,l),
(445,303,l)
);
}
);
width = 616;
}
);
note = A;
unicode = 65;
},
{
glyphname = B;
layers = (
{
.lastUpdate = 743689192.62;
layerId = m01;
shapes = (
{
closed = 1;
nodes = (
(106,27,o),
(107,20,o),
(111,14,qs),
(113,10,o),
(115,8,qs),
(123,0,o),
(137,0,qs),
(446,0,ls),
(451,0,o),
(458,2,qs),
(558,36,l),
(559,36,o),
(560,37,o),
(561,37,q),
(568,41,o),
(571,44,qs),
(605,78,ls),
(610,83,o),
(612,87,qs),
(646,155,ls),
(649,162,o),
(649,169,qs),
(649,272,ls),
(649,280,o),
(645,288,qs),
(612,354,l),
(612,355,o),
(611,356,qs),
(608,360,o),
(605,363,qs),
(572,396,ls),
(567,401,o),
(558,404,qs),
(545,409,l),
(559,414,l),
(559,414,o),
(559,414,q),
(567,417,o),
(571,421,qs),
(604,455,ls),
(605,456,o),
(607,457,o),
(611,462,o),
(612,464,qs),
(645,532,ls),
(649,539,o),
(649,546,qs),
(649,615,ls),
(649,623,o),
(645,631,qs),
(612,697,l),
(612,698,o),
(611,699,qs),
(608,703,o),
(605,706,qs),
(572,739,ls),
(571,740,o),
(566,744,o),
(560,746,o),
(558,747,qs),
(456,782,ls),
(451,784,o),
(446,784,qs),
(137,784,ls),
(132,784,o),
(123,781,o),
(119,778,qs),
(118,777,o),
(118,777,q),
(117,776,o),
(115,774,q),
(114,774,o),
(114,774,q),
(106,766,o),
(106,752,qs),
(106,32,ls)
);
},
{
closed = 1;
nodes = (
(531,690,l),
(557,665,l),
(586,608,l),
(586,554,l),
(557,497,l),
(531,471,l),
(442,441,l),
(169,441,l),
(169,721,l),
(442,721,l)
);
},
{
closed = 1;
nodes = (
(531,347,l),
(557,321,l),
(586,264,l),
(586,176,l),
(557,119,l),
(531,93,l),
(442,63,l),
(169,63,l),
(169,377,l),
(442,377,l)
);
}
);
width = 685;
}
);
note = B;
unicode = 66;
},
{
glyphname = C;
layers = (
{
.lastUpdate = 743689192.62;
layerId = m01;
shapes = (
{
closed = 1;
nodes = (
(298,783,o),
(295,781,qs),
(226,746,ls),
(222,744,o),
(218,740,qs),
(149,671,ls),
(145,667,o),
(143,663,qs),
(109,594,l),
(109,593,o),
(109,593,q),
(108,592,o),
(108,591,q),
(73,490,l),
(73,488,o),
(72,485,o),
(71,482,o),
(71,479,o),
(71,478,qs),
(71,306,ls),
(71,302,o),
(71,300,o),
(73,294,qs),
(108,194,l),
(108,193,o),
(108,192,qs),
(108,191,o),
(108,191,q),
(109,190,o),
(109,189,q),
(143,122,l),
(145,116,o),
(149,112,qs),
(218,44,ls),
(222,40,o),
(226,38,qs),
(295,4,ls),
(302,0,o),
(309,0,qs),
(446,0,ls),
(453,0,o),
(462,5,qs),
(527,38,l),
(528,38,o),
(532,40,o),
(536,43,o),
(537,44,qs),
(605,112,ls),
(610,117,o),
(612,121,qs),
(645,188,ls),
(649,196,o),
(649,205,qs),
(649,216,o),
(631,236,o),
(615,236,qs),
(606,236,o),
(593,226,o),
(589,217,qs),
(557,154,l),
(496,92,l),
(439,63,l),
(316,63,l),
(259,92,l),
(198,154,l),
(167,215,l),
(135,310,l),
(135,473,l),
(167,569,l),
(198,630,l),
(259,692,l),
(316,721,l),
(439,721,l),
(496,692,l),
(557,630,l),
(589,567,l),
(597,548,o),
(615,548,qs),
(630,548,o),
(649,567,o),
(649,579,qs),
(649,588,o),
(645,596,qs),
(612,663,l),
(611,664,o),
(610,666,o),
(609,667,qs),
(605,671,o),
(537,740,qs),
(536,741,o),
(535,742,qs),
(533,743,o),
(529,745,o),
(528,746,q),
(460,781,ls),
(453,784,o),
(446,784,qs),
(309,784,ls),
(305,784,o)
);
}
);
width = 753;
}
);
note = C;
unicode = 67;
},
{
glyphname = D;
layers = (
{
.lastUpdate = 743689192.62;
layerId = m01;
shapes = (
{
closed = 1;
nodes = (
(106,27,o),
(107,20,o),
(111,14,qs),
(113,10,o),
(115,8,qs),
(123,0,o),
(137,0,qs),
(377,0,ls),
(382,0,o),
(389,2,qs),
(490,36,l),
(495,38,l),
(499,41,o),
(502,44,qs),
(571,112,ls),
(572,113,o),
(573,114,qs),
(574,116,o),
(575,120,o),
(576,121,q),
(611,189,l),
(612,189,o),
(613,191,o),
(613,193,o),
(613,194,q),
(647,295,ls),
(649,301,o),
(649,306,qs),
(649,478,ls),
(649,483,o),
(647,489,qs),
(613,590,l),
(613,592,o),
(612,593,qs),
(611,594,o),
(611,594,q),
(577,663,l),
(571,671,l),
(504,738,ls),
(499,744,o),
(490,747,qs),
(387,782,ls),
(382,784,o),
(377,784,qs),
(137,784,ls),
(132,784,o),
(123,781,o),
(119,778,qs),
(118,777,o),
(118,777,q),
(117,776,o),
(115,774,q),
(114,774,o),
(114,774,q),
(106,766,o),
(106,752,qs),
(106,32,ls)
);
},
{
closed = 1;
nodes = (
(462,690,l),
(523,630,l),
(554,569,l),
(586,473,l),
(586,310,l),
(554,215,l),
(523,154,l),
(462,93,l),
(373,63,l),
(169,63,l),
(169,721,l),
(373,721,l)
);
}
);
width = 685;
}
);
note = D;
unicode = 68;
},
{
glyphname = E;
layers = (
{
.lastUpdate = 743689192.62;
layerId = m01;
shapes = (
{
closed = 1;
nodes = (
(106,27,o),
(107,20,o),
(111,14,qs),
(113,10,o),
(115,8,qs),
(123,0,o),
(137,0,qs),
(583,0,ls),
(596,0,o),
(615,19,o),
(615,44,o),
(596,63,o),
(583,63,qs),
(169,63,l),
(169,377,l),
(412,377,ls),
(424,377,o),
(443,396,o),
(443,409,qs),
(443,421,o),
(425,441,o),
(412,441,qs),
(169,441,l),
(169,721,l),
(583,721,ls),
(596,721,o),
(615,740,o),
(615,765,o),
(596,784,o),
(583,784,qs),
(137,784,ls),
(132,784,o),
(123,781,o),
(119,778,qs),
(118,777,o),
(118,777,q),
(117,776,o),
(115,774,q),
(114,774,o),
(114,774,q),
(106,766,o),
(106,752,qs),
(106,32,ls)
);
}
);
width = 616;
}
);
note = E;
unicode = 69;
},
{
glyphname = F;
layers = (
{
.lastUpdate = 743689192.62;
layerId = m01;
shapes = (
{
closed = 1;
nodes = (
(106,19,o),
(125,0,o),
(137,0,qs),
(144,0,o),
(155,5,o),
(164,14,o),
(169,26,o),
(169,32,qs),
(169,377,l),
(412,377,ls),
(424,377,o),
(443,396,o),
(443,409,qs),
(443,421,o),
(425,441,o),
(412,441,qs),
(169,441,l),
(169,721,l),
(583,721,ls),
(596,721,o),
(615,740,o),
(615,765,o),
(596,784,o),
(583,784,qs),
(137,784,ls),
(132,784,o),
(123,781,o),
(119,778,qs),
(118,777,o),
(118,777,q),
(117,776,o),
(115,774,q),
(114,774,o),
(114,774,q),
(106,766,o),
(106,752,qs),
(106,32,ls)
);
}
);
width = 547;
}
);
note = F;
unicode = 70;
},
{
glyphname = G;
layers = (
{
.lastUpdate = 743689192.62;
layerId = m01;
shapes = (
{
closed = 1;
nodes = (
(631,338,o),
(618,338,qs),
(446,338,ls),
(433,338,o),
(414,319,o),
(414,295,o),
(423,285,qs),
(433,274,o),
(446,274,qs),
(586,274,l),
(586,211,l),
(557,154,l),
(496,92,l),
(439,63,l),
(316,63,l),
(259,92,l),
(198,154,l),
(167,215,l),
(135,310,l),
(135,473,l),
(167,569,l),
(198,630,l),
(259,692,l),
(316,721,l),
(439,721,l),
(496,692,l),
(557,630,l),
(589,567,l),
(597,548,o),
(615,548,qs),
(630,548,o),
(649,567,o),
(649,579,qs),
(649,588,o),
(645,596,qs),
(612,663,l),
(611,664,o),
(610,666,o),
(609,667,qs),
(605,671,o),
(537,740,qs),
(536,741,o),
(535,742,qs),
(533,743,o),
(529,745,o),
(528,746,q),
(460,781,ls),
(453,784,o),
(446,784,qs),
(309,784,ls),
(305,784,o),
(298,783,o),
(295,781,qs),
(226,746,ls),
(222,744,o),
(218,740,qs),
(149,671,ls),
(145,667,o),
(143,663,qs),
(109,594,l),
(109,593,o),
(109,593,q),
(108,592,o),
(108,591,q),
(73,490,l),
(73,488,o),
(72,485,o),
(71,482,o),
(71,479,o),
(71,478,qs),
(71,306,ls),
(71,302,o),
(71,300,o),
(73,294,qs),
(108,194,l),
(108,193,o),
(108,192,qs),
(108,191,l),
(109,190,o),
(109,189,q),
(143,122,l),
(145,116,o),
(149,112,qs),
(218,44,ls),
(222,40,o),
(226,38,qs),
(295,4,ls),
(302,0,o),
(309,0,qs),
(446,0,ls),
(453,0,o),
(462,5,qs),
(527,38,l),
(528,38,o),
(532,40,o),
(536,43,o),
(537,44,qs),
(605,112,ls),
(610,117,o),
(612,121,qs),
(646,189,ls),
(649,196,o),
(649,203,qs),
(649,306,ls),
(649,309,o),
(648,315,o),
(645,322,o),
(643,325,qs),
(640,329,ls)
);
}
);
width = 753;
}
);
note = G;
unicode = 71;
},
{
glyphname = H;
layers = (
{
.lastUpdate = 743689192.62;
layerId = m01;
shapes = (
{
closed = 1;
nodes = (
(120,778,o),
(116,774,qs),
(106,765,o),
(106,752,qs),
(106,32,ls),
(106,19,o),
(125,0,o),
(137,0,qs),
(144,0,o),
(155,5,o),
(164,14,o),
(169,26,o),
(169,32,qs),
(169,377,l),
(586,377,l),
(586,32,ls),
(586,19,o),
(605,0,o),
(630,0,o),
(649,19,o),
(649,32,qs),
(649,752,ls),
(649,765,o),
(630,784,o),
(605,784,o),
(586,765,o),
(586,752,qs),
(586,441,l),
(169,441,l),
(169,752,ls),
(169,765,o),
(149,784,o),
(137,784,qs),
(131,784,o)
);
}
);
width = 753;
}
);
note = H;
unicode = 72;
},
{
glyphname = I;
layers = (
{
.lastUpdate = 743689192.62;
layerId = m01;
shapes = (
{
closed = 1;
nodes = (
(120,778,o),
(116,774,qs),
(106,765,o),
(106,752,qs),
(106,32,ls),
(106,19,o),
(125,0,o),
(137,0,qs),
(144,0,o),
(155,5,o),
(164,14,o),
(169,26,o),
(169,32,qs),
(169,752,ls),
(169,765,o),
(149,784,o),
(137,784,qs),
(131,784,o)
);
}
);
width = 273;
}
);
note = I;
unicode = 73;
},
{
glyphname = J;
layers = (
{
.lastUpdate = 743689192.62;
layerId = m01;
shapes = (
{
closed = 1;
nodes = (
(380,752,qs),
(380,207,l),
(350,118,l),
(324,92,l),
(267,63,l),
(213,63,l),
(156,92,l),
(130,118,l),
(100,207,l),
(100,272,ls),
(100,284,o),
(80,303,o),
(68,303,qs),
(57,303,o),
(37,285,o),
(37,272,qs),
(37,203,ls),
(37,198,o),
(39,192,qs),
(73,91,l),
(73,89,o),
(74,88,q),
(78,81,o),
(81,78,qs),
(115,44,ls),
(116,43,o),
(117,42,q),
(124,38,l),
(192,4,ls),
(195,2,o),
(202,0,o),
(206,0,qs),
(274,0,ls),
(282,0,o),
(290,4,qs),
(357,38,ls),
(361,40,o),
(365,44,qs),
(399,77,ls),
(400,78,o),
(404,83,o),
(406,89,o),
(407,91,qs),
(441,192,ls),
(443,198,o),
(443,203,qs),
(443,752,ls),
(443,765,o),
(424,784,o),
(399,784,o),
(380,765,o)
);
}
);
width = 547;
}
);
note = J;
unicode = 74;
},
{
glyphname = K;
layers = (
{
.lastUpdate = 743689192.62;
layerId = m01;
shapes = (
{
closed = 1;
nodes = (
(120,778,o),
(116,774,qs),
(106,765,o),
(106,752,qs),
(106,32,ls),
(106,19,o),
(125,0,o),
(137,0,qs),
(144,0,o),
(155,5,o),
(164,14,o),
(169,26,o),
(169,32,qs),
(169,259,l),
(305,396,l),
(592,13,l),
(592,12,o),
(592,12,q),
(602,0,o),
(630,0,o),
(649,19,o),
(649,31,qs),
(649,40,o),
(645,49,q),
(644,50,o),
(644,51,q),
(643,52,o),
(643,52,q),
(351,440,l),
(640,730,ls),
(641,731,o),
(641,731,q),
(645,736,o),
(649,746,o),
(649,752,qs),
(649,765,o),
(630,784,o),
(605,784,o),
(595,774,qs),
(290,470,l),
(290,469,o),
(289,469,q),
(284,466,o),
(282,463,q),
(169,348,l),
(169,752,ls),
(169,765,o),
(149,784,o),
(137,784,qs),
(131,784,o)
);
}
);
width = 685;
}
);
note = K;
unicode = 75;
},
{
glyphname = L;
layers = (
{
.lastUpdate = 743689192.62;
layerId = m01;
shapes = (
{
closed = 1;
nodes = (
(562,0,o),
(581,19,o),
(581,44,o),
(562,63,o),
(549,63,qs),
(169,63,l),
(169,752,ls),
(169,765,o),
(149,784,o),
(137,784,qs),
(131,784,o),
(120,778,o),
(116,774,qs),
(106,765,o),
(106,752,qs),
(106,32,ls),
(106,27,o),
(107,20,o),
(111,14,qs),
(113,10,o),
(115,8,qs),
(123,0,o),
(137,0,qs),
(549,0,ls)
);
}
);
width = 479;
}
);
note = L;
unicode = 76;
},
{
glyphname = M;
layers = (
{
.lastUpdate = 743689192.62;
layerId = m01;
shapes = (
{
closed = 1;
nodes = (
(661,771,ls),
(658,767,o),
(657,762,q),
(412,121,l),
(169,758,l),
(167,767,o),
(161,773,q),
(159,779,o),
(154,781,qs),
(152,782,o),
(148,783,qs),
(145,784,o),
(142,784,qs),
(133,784,ls),
(131,784,o),
(129,783,q),
(121,783,o),
(116,778,qs),
(114,775,o),
(113,772,q),
(112,772,o),
(109,768,o),
(109,767,q),
(107,764,o),
(107,759,q),
(106,756,l),
(106,755,ls),
(106,754,o),
(106,753,qs),
(106,32,ls),
(106,19,o),
(125,0,o),
(137,0,qs),
(144,0,o),
(155,5,o),
(164,14,o),
(169,26,o),
(169,32,qs),
(169,579,l),
(380,24,ls),
(381,21,o),
(383,15,o),
(387,10,o),
(391,6,o),
(396,3,o),
(401,1,o),
(407,0,o),
(410,0,qs),
(417,0,ls),
(423,0,o),
(431,6,qs),
(438,12,o),
(442,23,qs),
(655,580,l),
(655,32,ls),
(655,19,o),
(674,0,o),
(699,0,o),
(718,19,o),
(718,32,qs),
(718,757,ls),
(718,761,o),
(715,765,qs),
(707,776,ls),
(706,778,o),
(701,781,o),
(698,782,q),
(695,784,o),
(691,784,qs),
(685,784,ls),
(682,784,o),
(678,783,o),
(675,782,qs),
(665,777,l),
(665,778,l)
);
}
);
width = 822;
}
);
note = M;
unicode = 77;
},
{
glyphname = N;
layers = (
{
.lastUpdate = 743689192.62;
layerId = m01;
shapes = (
{
closed = 1;
nodes = (
(621,0,qs),
(631,2,l),
(638,5,l),
(649,14,o),
(649,32,qs),
(649,752,ls),
(649,765,o),
(630,784,o),
(605,784,o),
(586,765,o),
(586,752,qs),
(586,137,l),
(166,766,l),
(158,784,o),
(137,784,qs),
(135,784,ls),
(134,784,o),
(131,784,o),
(130,783,q),
(128,783,l),
(126,782,o),
(126,782,q),
(121,782,o),
(117,779,qs),
(106,770,o),
(106,752,qs),
(106,32,ls),
(106,19,o),
(125,0,o),
(137,0,qs),
(144,0,o),
(155,5,o),
(164,14,o),
(169,26,o),
(169,32,qs),
(169,648,l),
(590,16,l),
(592,14,o),
(595,12,qs),
(610,2,ls),
(615,-1,o)
);
}
);
width = 753;
}
);
note = N;
unicode = 78;
},
{
glyphname = O;
layers = (
{
.lastUpdate = 743689192.621;
layerId = m01;
shapes = (
{
closed = 1;
nodes = (
(300,783,o),
(300,783,q),
(299,783,l),
(299,784,o),
(293,781,o),
(290,779,qs),
(226,746,ls),
(222,744,o),
(218,740,qs),
(149,671,ls),
(145,667,o),
(143,663,qs),
(109,594,l),
(109,593,o),
(109,593,q),
(108,592,o),
(108,591,q),
(73,490,l),
(73,488,o),
(72,485,o),
(71,482,o),
(71,479,o),
(71,478,qs),
(71,306,ls),
(71,302,o),
(71,300,o),
(73,294,qs),
(108,194,l),
(108,193,o),
(108,192,qs),
(108,191,l),
(109,190,o),
(109,189,q),
(143,122,l),
(145,116,o),
(149,112,qs),
(218,44,ls),
(222,40,o),
(226,38,qs),
(295,4,ls),
(302,0,o),
(309,0,qs),
(446,0,ls),
(453,0,o),
(462,5,qs),
(527,38,l),
(528,38,o),
(532,40,o),
(536,43,o),
(537,44,qs),
(605,112,ls),
(610,117,o),
(612,121,qs),
(646,189,l),
(647,190,o),
(647,192,qs),
(647,193,o),
(647,194,q),
(680,293,l),
(684,301,o),
(684,306,qs),
(684,478,ls),
(684,479,o),
(683,482,o),
(683,483,q),
(681,488,l),
(647,590,l),
(647,592,o),
(646,593,q),
(646,594,l),
(612,663,l),
(611,664,o),
(610,666,o),
(609,667,qs),
(605,671,o),
(537,740,qs),
(536,741,o),
(535,742,qs),
(533,743,o),
(529,745,o),
(528,746,q),
(460,781,ls),
(453,784,o),
(446,784,qs),
(304,784,l),
(301,784,l)
);
},
{
closed = 1;
nodes = (
(496,692,l),
(557,630,l),
(588,569,l),
(620,473,l),
(620,310,l),
(588,215,l),
(557,154,l),
(496,92,l),
(439,63,l),
(316,63,l),
(259,92,l),
(198,154,l),
(167,215,l),
(135,310,l),
(135,473,l),
(167,569,l),
(198,630,l),
(259,692,l),
(316,721,l),
(439,721,l)
);
}
);
width = 753;
}
);
note = O;
unicode = 79;
},
{
glyphname = P;
layers = (
{
.lastUpdate = 743689192.621;
layerId = m01;
shapes = (
{
closed = 1;
nodes = (
(559,380,o),
(559,380,q),
(567,383,o),
(571,387,qs),
(605,421,ls),
(610,426,o),
(612,430,qs),
(646,498,ls),
(649,505,o),
(649,512,qs),
(649,615,ls),
(649,623,o),
(645,631,qs),
(612,697,l),
(612,698,o),
(611,699,qs),
(608,703,o),
(605,706,qs),
(572,739,ls),
(571,740,o),
(566,744,o),
(560,746,o),
(558,747,qs),
(456,782,ls),
(451,784,o),
(446,784,qs),
(137,784,ls),
(132,784,o),
(123,781,o),
(119,778,qs),
(118,777,o),
(118,777,q),
(117,776,o),
(115,774,q),
(114,774,o),
(114,774,q),
(106,766,o),
(106,752,qs),
(106,32,ls),
(106,19,o),
(125,0,o),
(137,0,qs),
(144,0,o),
(155,5,o),
(164,14,o),
(169,26,o),
(169,32,qs),
(169,343,l),
(446,343,ls),
(452,343,o),
(460,346,qs),
(559,380,l)
);
},
{
closed = 1;
nodes = (
(531,690,l),
(557,665,l),
(586,608,l),
(586,519,l),
(557,462,l),
(531,437,l),
(442,406,l),
(169,406,l),
(169,721,l),
(442,721,l)
);
}
);
width = 685;
}
);
note = P;
unicode = 80;
},
{
glyphname = Q;
layers = (
{
.lastUpdate = 743689192.621;
layerId = m01;
shapes = (
{
closed = 1;
nodes = (
(300,783,o),
(300,783,q),
(299,783,l),
(299,784,o),
(293,781,o),
(290,779,qs),
(226,746,ls),
(222,744,o),
(218,740,qs),
(149,671,ls),
(145,667,o),
(143,663,qs),
(109,594,l),
(109,593,o),
(109,593,q),
(108,592,o),
(108,591,q),
(73,490,l),
(73,488,o),
(72,485,o),
(71,482,o),
(71,479,o),
(71,478,qs),
(71,306,ls),
(71,302,o),
(71,300,o),
(73,294,qs),
(108,194,l),
(108,193,o),
(108,192,qs),
(108,191,o),
(108,191,q),
(109,190,o),
(109,189,q),
(143,122,l),
(145,116,o),
(149,112,qs),
(218,44,ls),
(222,40,o),
(226,38,qs),
(295,4,ls),
(302,0,o),
(309,0,qs),
(446,0,ls),
(454,0,o),
(462,4,qs),
(508,28,l),
(595,-59,ls),
(605,-69,o),
(629,-69,o),
(639,-59,qs),
(650,-49,o),
(650,-25,o),
(640,-15,qs),
(559,66,l),
(605,112,ls),
(610,117,o),
(612,121,qs),
(646,189,l),
(647,190,o),
(647,192,qs),
(647,193,o),
(647,194,q),
(680,293,l),
(684,301,o),
(684,306,qs),
(684,478,ls),
(684,479,o),
(683,482,o),
(683,483,q),
(681,488,l),
(647,590,l),
(647,592,o),
(646,593,q),
(646,594,l),
(612,663,l),
(611,664,o),
(610,666,o),
(609,667,qs),
(605,671,o),
(537,740,qs),
(536,741,o),
(535,742,qs),
(533,743,o),
(529,745,o),
(528,746,q),
(460,781,ls),
(453,784,o),
(446,784,qs),
(304,784,l),
(301,784,l)
);
},
{
closed = 1;
nodes = (
(496,692,l),
(557,630,l),
(588,569,l),
(620,473,l),
(620,310,l),
(588,215,l),
(557,154,l),
(515,110,l),
(434,191,ls),
(432,193,o),
(427,197,o),
(421,200,o),
(414,201,o),
(411,201,qs),
(399,201,o),
(380,182,o),
(380,157,o),
(390,147,qs),
(461,74,l),
(439,63,l),
(316,63,l),
(259,92,l),
(198,154,l),
(167,215,l),
(135,310,l),
(135,473,l),
(167,569,l),
(198,630,l),
(259,692,l),
(316,721,l),
(439,721,l)
);
}
);
width = 753;
}
);
note = Q;
unicode = 81;
},
{
glyphname = R;
layers = (
{
.lastUpdate = 743689192.621;
layerId = m01;
shapes = (
{
closed = 1;
nodes = (
(106,19,o),
(125,0,o),
(137,0,qs),
(144,0,o),
(155,5,o),
(164,14,o),
(169,26,o),
(169,32,qs),
(169,377,l),
(359,377,l),
(589,16,ls),
(599,-1,o),
(615,-1,qs),
(630,-1,o),
(649,18,o),
(649,31,qs),
(649,41,o),
(646,48,q),
(645,49,o),
(645,50,q),
(435,377,l),
(446,377,ls),
(447,377,o),
(449,377,q),
(452,378,o),
(455,379,o),
(457,380,qs),
(559,414,l),
(559,414,o),
(559,414,q),
(567,417,o),
(571,421,qs),
(604,455,ls),
(605,456,o),
(607,457,o),
(611,462,o),
(612,464,qs),
(645,532,ls),
(649,539,o),
(649,546,qs),
(649,615,ls),
(649,623,o),
(645,631,qs),
(612,697,l),
(612,698,o),
(611,699,qs),
(608,703,o),
(605,706,qs),
(572,739,ls),
(571,740,o),
(566,744,o),
(560,746,o),
(558,747,qs),
(456,782,ls),
(451,784,o),
(446,784,qs),
(137,784,ls),
(132,784,o),
(123,781,o),
(119,778,qs),
(118,777,o),
(118,777,q),
(117,776,o),
(115,774,q),
(114,774,o),
(114,774,q),
(106,766,o),
(106,752,qs),
(106,32,ls)
);
},
{
closed = 1;
nodes = (
(531,690,l),
(557,665,l),
(586,608,l),
(586,554,l),
(557,497,l),
(531,471,l),
(442,441,l),
(169,441,l),
(169,721,l),
(442,721,l)
);
}
);
width = 685;
}
);
note = R;
unicode = 82;
},
{
glyphname = S;
layers = (
{
.lastUpdate = 743689192.621;
layerId = m01;
shapes = (
{
closed = 1;
nodes = (
(262,781,qs),
(161,747,l),
(161,747,o),
(161,747,q),
(153,744,o),
(149,740,qs),
(82,672,ls),
(71,662,o),
(71,649,qs),
(71,581,ls),
(71,573,o),
(75,565,qs),
(109,498,ls),
(111,494,o),
(115,490,qs),
(149,456,ls),
(154,451,o),
(158,449,qs),
(226,415,l),
(227,414,o),
(229,414,qs),
(230,414,o),
(230,414,q),
(434,345,l),
(496,314,l),
(523,287,l),
(552,230,l),
(552,147,l),
(497,93,l),
(408,63,l),
(279,63,l),
(189,93,l),
(125,157,ls),
(122,160,o),
(115,164,o),
(107,166,o),
(103,166,qs),
(90,166,o),
(71,147,o),
(71,122,o),
(81,112,qs),
(147,46,ls),
(153,39,o),
(162,36,qs),
(263,2,ls),
(269,0,o),
(274,0,qs),
(412,0,ls),
(417,0,o),
(423,2,qs),
(524,36,l),
(526,36,o),
(527,37,q),
(534,41,o),
(537,44,qs),
(605,112,ls),
(615,122,o),
(615,135,qs),
(615,238,ls),
(615,242,o),
(614,247,o),
(611,253,qs),
(577,320,l),
(575,322,o),
(573,326,o),
(571,328,qs),
(537,363,ls),
(536,364,o),
(535,365,q),
(528,369,l),
(460,403,l),
(459,403,o),
(459,403,q),
(457,404,o),
(456,404,q),
(252,473,l),
(191,504,l),
(164,531,l),
(135,588,l),
(135,637,l),
(189,690,l),
(279,721,l),
(408,721,l),
(497,690,l),
(561,627,l),
(562,626,l),
(562,626,o),
(562,626,q),
(564,624,o),
(569,621,o),
(575,619,o),
(580,618,o),
(583,618,qs),
(596,618,o),
(615,637,o),
(615,661,o),
(605,671,qs),
(538,739,ls),
(533,744,o),
(524,747,qs),
(424,781,ls),
(417,784,o),
(412,784,qs),
(274,784,ls),
(269,784,o)
);
}
);
width = 685;
}
);
note = S;
unicode = 83;
},
{
glyphname = T;
layers = (
{
.lastUpdate = 743689192.621;
layerId = m01;
shapes = (
{
closed = 1;
nodes = (
(3,764,o),
(3,752,qs),
(3,741,o),
(21,721,o),
(34,721,qs),
(243,721,l),
(243,32,ls),
(243,19,o),
(262,0,o),
(287,0,o),
(306,19,o),
(306,32,qs),
(306,721,l),
(515,721,ls),
(527,721,o),
(546,740,o),
(546,764,o),
(528,784,o),
(515,784,qs),
(34,784,ls),
(22,784,o)
);
}
);
width = 547;
}
);
note = T;
unicode = 84;
},
{
glyphname = U;
layers = (
{
.lastUpdate = 743689192.621;
layerId = m01;
shapes = (
{
closed = 1;
nodes = (
(120,778,o),
(116,774,qs),
(106,765,o),
(106,752,qs),
(106,238,ls),
(106,237,o),
(106,236,qs),
(106,233,o),
(108,226,qs),
(142,124,l),
(142,124,o),
(142,124,q),
(143,122,o),
(144,119,o),
(145,116,o),
(148,113,o),
(149,112,qs),
(216,46,l),
(219,42,o),
(227,37,o),
(231,36,qs),
(332,2,ls),
(338,0,o),
(343,0,qs),
(412,0,ls),
(417,0,o),
(423,2,qs),
(524,36,l),
(526,36,o),
(527,37,q),
(534,41,o),
(537,44,qs),
(603,110,l),
(606,112,o),
(610,117,o),
(612,122,o),
(613,125,qs),
(647,228,ls),
(649,233,o),
(649,238,qs),
(649,752,ls),
(649,765,o),
(630,784,o),
(605,784,o),
(586,765,o),
(586,752,qs),
(586,242,l),
(556,153,l),
(497,93,l),
(408,63,l),
(347,63,l),
(258,93,l),
(199,153,l),
(169,242,l),
(169,752,ls),
(169,765,o),
(149,784,o),
(137,784,qs),
(131,784,o)
);
}
);
width = 753;
}
);
note = U;
unicode = 85;
},
{
glyphname = V;
layers = (
{
.lastUpdate = 743689192.621;
layerId = m01;
shapes = (
{
closed = 1;
nodes = (
(320,0,o),
(328,6,qs),
(335,12,o),
(339,23,qs),
(613,740,ls),
(615,744,o),
(615,753,qs),
(615,766,o),
(596,785,o),
(580,785,qs),
(559,785,o),
(553,763,q),
(309,121,l),
(64,764,l),
(63,765,o),
(63,766,q),
(53,784,o),
(34,784,qs),
(32,784,ls),
(30,784,o),
(29,784,qs),
(23,783,o),
(13,777,o),
(9,772,qs),
(3,764,o),
(3,752,qs),
(3,751,o),
(3,747,o),
(4,744,o),
(4,743,q),
(277,24,l),
(280,13,o),
(296,0,o),
(307,0,qs),
(314,0,ls)
);
}
);
width = 616;
}
);
note = V;
unicode = 86;
},
{
glyphname = W;
layers = (
{
.lastUpdate = 743689192.621;
layerId = m01;
shapes = (
{
closed = 1;
nodes = (
(265,13,o),
(271,22,o),
(272,26,qs),
(412,615,l),
(552,26,ls),
(552,25,o),
(553,20,o),
(554,17,o),
(556,12,o),
(559,9,o),
(564,5,o),
(567,4,qs),
(571,2,l),
(573,2,l),
(576,0,o),
(579,0,qs),
(585,0,ls),
(594,0,o),
(604,8,qs),
(605,9,ls),
(606,10,o),
(608,14,o),
(611,18,o),
(614,24,o),
(615,26,q),
(785,745,l),
(785,746,l),
(786,754,ls),
(786,755,o),
(786,756,qs),
(786,765,o),
(768,785,o),
(755,785,qs),
(743,785,o),
(735,779,qs),
(727,772,o),
(724,760,qs),
(583,169,l),
(443,757,l),
(442,759,o),
(441,762,o),
(440,766,o),
(439,769,o),
(438,772,qs),
(435,780,o),
(427,782,qs),
(419,784,ls),
(416,785,o),
(413,784,qs),
(404,782,l),
(402,782,o),
(400,781,o),
(396,780,o),
(395,779,qs),
(383,770,o),
(380,757,qs),
(240,169,l),
(99,760,ls),
(97,772,o),
(88,779,qs),
(83,782,o),
(73,785,o),
(68,785,qs),
(55,785,o),
(37,765,o),
(37,753,qs),
(37,750,ls),
(37,748,o),
(38,745,o),
(39,743,q),
(209,26,ls),
(209,25,o),
(211,18,o),
(212,15,o),
(215,10,o),
(220,6,o),
(224,4,qs),
(228,2,l),
(230,2,l),
(233,0,o),
(236,0,qs),
(242,0,ls),
(251,0,o),
(261,8,q),
(263,11,ls)
);
}
);
width = 822;
}
);
note = W;
unicode = 87;
},
{
glyphname = X;
layers = (
{
.lastUpdate = 743689192.621;
layerId = m01;
shapes = (
{
closed = 1;
nodes = (
(71,741,o),
(75,734,qs),
(305,392,l),
(75,50,l),
(74,49,l),
(74,48,o),
(74,48,q),
(71,42,o),
(71,32,qs),
(71,19,o),
(90,0,o),
(105,0,qs),
(121,0,o),
(130,15,qs),
(343,334,l),
(556,15,l),
(564,0,o),
(581,0,qs),
(596,0,o),
(615,20,o),
(615,32,qs),
(615,41,o),
(612,48,q),
(612,49,o),
(611,50,qs),
(381,392,l),
(611,734,ls),
(612,735,o),
(612,736,q),
(615,742,o),
(615,752,qs),
(615,765,o),
(596,784,o),
(581,784,qs),
(565,784,o),
(556,769,qs),
(343,449,l),
(130,769,l),
(122,784,o),
(105,784,qs),
(90,784,o),
(71,765,o),
(71,752,qs)
);
}
);
width = 685;
}
);
note = X;
unicode = 88;
},
{
glyphname = Y;
layers = (
{
.lastUpdate = 743689192.621;
layerId = m01;
shapes = (
{
closed = 1;
nodes = (
(3,740,o),
(9,732,qs),
(277,397,l),
(277,32,ls),
(277,19,o),
(296,0,o),
(321,0,o),
(340,19,o),
(340,32,qs),
(340,397,l),
(609,732,l),
(609,733,o),
(610,734,qs),
(612,737,o),
(614,743,o),
(615,749,o),
(615,752,qs),
(615,765,o),
(595,784,o),
(582,784,qs),
(578,784,o),
(569,781,o),
(561,776,o),
(558,772,qs),
(309,461,l),
(60,772,ls),
(55,778,o),
(42,784,o),
(35,784,qs),
(21,784,o),
(3,764,o),
(3,751,qs)
);
}
);
width = 616;
}
);
note = Y;
unicode = 89;
},
{
glyphname = Z;
layers = (
{
.lastUpdate = 743689192.622;
layerId = m01;
shapes = (
{
closed = 1;
nodes = (
(76,13,q),
(79,8,o),
(88,3,o),
(98,0,o),
(103,0,qs),
(583,0,ls),
(596,0,o),
(615,19,o),
(615,44,o),
(596,63,o),
(583,63,qs),
(162,63,l),
(608,732,ls),
(610,735,o),
(615,746,o),
(615,756,o),
(614,761,qs),
(614,762,l),
(613,763,o),
(613,764,qs),
(612,768,o),
(610,771,qs),
(601,784,o),
(583,784,qs),
(103,784,ls),
(90,784,o),
(71,765,o),
(71,740,o),
(90,721,o),
(103,721,qs),
(524,721,l),
(79,53,l),
(71,44,o),
(71,34,qs),
(71,28,o),
(72,23,qs),
(73,20,l),
(73,16,o)
);
}
);
width = 685;
}
);
note = Z;
unicode = 90;
},
{
glyphname = bracketleft;
layers = (
{
.lastUpdate = 743689192.622;
layerId = m01;
shapes = (
{
closed = 1;
nodes = (
(140,-214,o),
(140,-219,o),
(143,-225,qs),
(145,-228,o),
(148,-231,q),
(148,-232,l),
(152,-236,o),
(162,-240,o),
(167,-240,qs),
(348,-240,ls),
(358,-240,o),
(367,-229,qs),
(371,-225,o),
(375,-214,o),
(375,-208,qs),
(375,-197,o),
(368,-188,qs),
(360,-177,o),
(348,-177,qs),
(221,-177,l),
(221,858,l),
(348,858,ls),
(358,858,o),
(367,869,qs),
(375,877,o),
(375,901,o),
(368,910,qs),
(360,921,o),
(348,921,qs),
(167,921,ls),
(159,921,o),
(151,915,q),
(150,915,o),
(149,914,o),
(147,912,qs),
(144,908,l),
(140,899,o),
(140,889,qs),
(140,-209,ls)
);
}
);
width = 479;
}
);
note = bracketleft;
unicode = 91;
},
{
glyphname = backslash;
layers = (
{
.lastUpdate = 743689192.622;
layerId = m01;
shapes = (
{
closed = 1;
nodes = (
(-26,772,q),
(-30,766,o),
(-33,754,o),
(-31,742,o),
(-27,735,qs),
(452,-86,l),
(460,-104,o),
(478,-104,qs),
(493,-104,o),
(512,-85,o),
(512,-72,qs),
(512,-62,o),
(508,-55,qs),
(27,768,ls),
(23,775,o),
(9,784,o),
(1,784,qs),
(-15,784,o)
);
}
);
width = 479;
}
);
note = backslash;
unicode = 92;
},
{
glyphname = bracketright;
layers = (
{
.lastUpdate = 743689192.622;
layerId = m01;
shapes = (
{
closed = 1;
nodes = (
(333,-231,qs),
(340,-224,o),
(340,-209,qs),
(340,889,ls),
(340,897,o),
(336,906,qs),
(335,910,o),
(332,913,qs),
(324,921,o),
(313,921,qs),
(133,921,ls),
(121,921,o),
(113,910,qs),
(106,900,o),
(106,878,o),
(113,869,qs),
(121,858,o),
(133,858,qs),
(259,858,l),
(259,-177,l),
(133,-177,ls),
(121,-177,o),
(113,-188,qs),
(106,-197,o),
(106,-220,o),
(113,-229,qs),
(121,-240,o),
(133,-240,qs),
(313,-240,ls),
(321,-240,o),
(329,-234,qs),
(331,-233,o)
);
}
);
width = 479;
}
);
note = bracketright;
unicode = 93;
},
{
glyphname = asciicircum;
layers = (
{
.lastUpdate = 743689192.622;
layerId = m01;
shapes = (
{
closed = 1;
nodes = (
(155,585,o),
(164,597,qs),
(274,735,l),
(386,595,l),
(387,594,ls),
(390,591,o),
(397,587,o),
(404,584,o),
(408,584,qs),
(412,583,o),
(421,585,o),
(429,588,o),
(432,591,qs),
(437,595,o),
(443,606,o),
(444,612,qs),
(445,623,o),
(438,634,qs),
(437,635,l),
(300,807,l),
(299,808,ls),
(294,813,o),
(282,818,o),
(275,818,qs),
(260,819,o),
(249,807,q),
(113,636,l),
(109,632,o),
(105,617,o),
(107,605,o),
(113,595,o),
(117,591,qs),
(126,583,o)
);
}
);
width = 582;
}
);
note = asciicircum;
unicode = 94;
},
{
glyphname = underscore;
layers = (
{
.lastUpdate = 743689192.622;
layerId = m01;
shapes = (
{
closed = 1;
nodes = (
(-32,-196,o),
(-32,-208,qs),
(-32,-215,o),
(-26,-226,o),
(-22,-230,q),
(-21,-232,o),
(-18,-234,o),
(-14,-237,o),
(-10,-238,o),
(-6,-239,o),
(-2,-240,o),
(0,-240,qs),
(618,-240,ls),
(631,-240,o),
(640,-230,qs),
(643,-227,o),
(647,-220,o),
(649,-212,o),
(649,-208,qs),
(649,-202,o),
(644,-191,o),
(635,-182,o),
(624,-177,o),
(618,-177,qs),
(0,-177,ls),
(-13,-177,o)
);
}
);
width = 616;
}
);
note = underscore;
unicode = 95;
},
{
glyphname = grave;
layers = (
{
.lastUpdate = 743689192.622;
layerId = m01;
shapes = (
{
closed = 1;
nodes = (
(-31,777,o),
(-25,766,o),
(-20,762,qs),
(185,592,ls),
(189,588,o),
(202,583,o),
(208,583,q),
(210,584,o),
(214,584,o),
(218,586,o),
(222,588,o),
(225,590,o),
(229,593,o),
(230,595,qs),
(240,609,o),
(238,621,qs),
(237,624,o),
(235,629,o),
(232,634,o),
(228,638,o),
(226,640,qs),
(20,811,ls),
(19,812,o),
(16,814,o),
(13,815,o),
(10,817,o),
(7,818,o),
(3,819,o),
(0,819,o),
(-2,819,qs),
(-14,818,o),
(-33,795,o),
(-32,783,qs)
);
}
);
width = 204;
}
);
note = grave;
unicode = 96;
},
{
glyphname = a;
layers = (
{
.lastUpdate = 743689192.622;
layerId = m01;
shapes = (
{
closed = 1;
nodes = (
(483,512,qs),
(483,485,l),
(468,500,ls),
(464,504,o),
(460,506,qs),
(392,539,l),
(385,544,o),
(377,544,qs),
(274,544,ls),
(272,544,o),
(270,544,q),
(265,542,o),
(260,539,qs),
(192,506,ls),
(189,505,o),
(186,502,o),
(184,500,qs),
(117,433,ls),
(111,428,o),
(108,419,qs),
(73,317,ls),
(71,311,o),
(71,306,qs),
(71,238,l),
(71,236,ls),
(71,233,o),
(74,225,qs),
(108,125,l),
(108,124,o),
(108,124,q),
(111,116,o),
(115,112,qs),
(184,44,ls),
(186,42,o),
(190,39,o),
(192,38,qs),
(259,4,ls),
(267,0,o),
(274,0,qs),
(377,0,ls),
(385,0,o),
(393,4,qs),
(460,38,ls),
(464,40,o),
(468,44,qs),
(483,59,l),
(483,32,ls),
(483,19,o),
(502,0,o),
(527,0,o),
(546,19,o),
(546,32,qs),
(546,512,ls),
(546,525,o),
(527,544,o),
(502,544,o),
(483,525,o)
);
},
{
closed = 1;
nodes = (
(427,451,l),
(483,396,l),
(483,147,l),
(427,92,l),
(370,63,l),
(282,63,l),
(225,92,l),
(165,153,l),
(135,242,l),
(135,302,l),
(165,391,l),
(225,451,l),
(282,480,l),
(370,480,l)
);
}
);
width = 685;
}
);
note = a;
unicode = 97;
},
{
glyphname = b;
layers = (
{
.lastUpdate = 743689192.622;
layerId = m01;
shapes = (
{
closed = 1;
nodes = (
(120,778,o),
(116,774,qs),
(106,765,o),
(106,752,qs),
(106,32,ls),
(106,19,o),
(125,0,o),
(137,0,qs),
(144,0,o),
(155,5,o),
(164,14,o),
(169,26,o),
(169,32,qs),
(169,59,l),
(184,44,ls),
(186,42,o),
(190,39,o),
(192,38,qs),
(259,4,ls),
(267,0,o),
(274,0,qs),
(377,0,ls),
(385,0,o),
(393,4,qs),
(460,38,ls),
(464,40,o),
(468,44,qs),
(536,111,ls),
(541,116,o),
(544,125,qs),
(579,228,ls),
(581,233,o),
(581,238,qs),
(581,306,ls),
(581,307,o),
(581,308,qs),
(581,311,o),
(578,319,qs),
(544,420,l),
(544,420,l),
(543,421,o),
(543,421,q),
(541,427,o),
(537,431,qs),
(468,500,ls),
(464,504,o),
(460,506,qs),
(392,539,l),
(385,544,o),
(377,544,qs),
(274,544,ls),
(272,544,o),
(270,544,q),
(265,542,o),
(260,539,qs),
(192,506,ls),
(189,505,o),
(186,502,o),
(184,500,qs),
(169,485,l),
(169,752,ls),
(169,765,o),
(149,784,o),
(137,784,qs),
(131,784,o)
);
},
{
closed = 1;
nodes = (
(427,451,l),
(487,391,l),
(517,302,l),
(517,242,l),
(487,153,l),
(427,92,l),
(370,63,l),
(282,63,l),
(225,92,l),
(169,147,l),
(169,396,l),
(225,451,l),
(282,480,l),
(370,480,l)
);
}
);
width = 616;
}
);
note = b;
unicode = 98;
},
{
glyphname = c;
layers = (
{
.lastUpdate = 743689192.622;
layerId = m01;
shapes = (
{
closed = 1;
nodes = (
(264,543,o),
(259,539,q),
(192,506,ls),
(189,505,o),
(186,502,o),
(184,500,qs),
(117,433,ls),
(111,428,o),
(108,419,qs),
(73,317,ls),
(71,311,o),
(71,306,qs),
(71,238,l),
(71,236,ls),
(71,233,o),
(74,225,qs),
(108,125,l),
(108,124,l),
(111,116,o),
(115,112,qs),
(184,44,ls),
(186,42,o),
(190,39,o),
(192,38,qs),
(259,4,ls),
(267,0,o),
(274,0,qs),
(377,0,ls),
(385,0,o),
(393,4,qs),
(460,38,ls),
(464,40,o),
(468,44,qs),
(537,112,l),
(538,112,o),
(538,113,q),
(542,118,o),
(546,129,o),
(546,141,o),
(540,153,o),
(532,161,o),
(520,167,o),
(513,167,qs),
(511,167,o),
(507,166,o),
(504,164,o),
(500,163,o),
(497,161,o),
(494,158,o),
(493,157,qs),
(427,92,l),
(370,63,l),
(282,63,l),
(225,92,l),
(165,153,l),
(135,242,l),
(135,302,l),
(165,391,l),
(225,451,l),
(282,480,l),
(370,480,l),
(427,451,l),
(492,388,ls),
(494,386,o),
(497,383,o),
(502,380,o),
(506,378,o),
(511,377,o),
(514,377,qs),
(526,377,o),
(536,387,qs),
(547,397,o),
(547,421,o),
(537,431,qs),
(468,500,ls),
(464,504,o),
(460,506,qs),
(392,539,l),
(385,544,o),
(377,544,qs),
(274,544,ls),
(270,544,o)
);
}
);
width = 616;
}
);
note = c;
unicode = 99;
},
{
glyphname = d;
layers = (
{
.lastUpdate = 743689192.622;
layerId = m01;
shapes = (
{
closed = 1;
nodes = (
(483,752,qs),
(483,485,l),
(468,500,ls),
(464,504,o),
(460,506,qs),
(392,539,l),
(385,544,o),
(377,544,qs),
(274,544,ls),
(272,544,o),
(270,544,q),
(265,542,o),
(260,539,qs),
(192,506,ls),
(189,505,o),
(186,502,o),
(184,500,qs),
(117,433,ls),
(111,428,o),
(108,419,qs),
(73,317,ls),
(71,311,o),
(71,306,qs),
(71,238,l),
(71,236,ls),
(71,233,o),
(74,225,qs),
(108,125,l),
(108,124,o),
(108,124,q),
(111,116,o),
(115,112,qs),
(184,44,ls),
(186,42,o),
(190,39,o),
(192,38,qs),
(259,4,ls),
(267,0,o),
(274,0,qs),
(377,0,ls),
(385,0,o),
(393,4,qs),
(460,38,ls),
(464,40,o),
(468,44,qs),
(483,59,l),
(483,32,ls),
(483,19,o),
(502,0,o),
(527,0,o),
(546,19,o),
(546,32,qs),
(546,752,ls),
(546,765,o),
(527,784,o),
(502,784,o),
(483,765,o)
);
},
{
closed = 1;
nodes = (
(427,451,l),
(483,396,l),
(483,147,l),
(427,92,l),
(370,63,l),
(282,63,l),
(225,92,l),
(165,153,l),
(135,242,l),
(135,302,l),
(165,391,l),
(225,451,l),
(282,480,l),
(370,480,l)
);
}
);
width = 685;
}
);
note = d;
unicode = 100;
},
{
glyphname = e;
layers = (
{
.lastUpdate = 743689192.622;
layerId = m01;
shapes = (
{
closed = 1;
nodes = (
(264,543,o),
(259,539,q),
(192,506,ls),
(189,505,o),
(186,502,o),
(184,500,qs),
(117,433,ls),
(111,428,o),
(108,419,qs),
(74,319,ls),
(71,312,o),
(71,306,qs),
(71,238,l),
(71,236,ls),
(71,233,o),
(74,225,qs),
(108,125,l),
(108,124,l),
(111,116,o),
(115,112,qs),
(184,44,ls),
(186,42,o),
(190,39,o),
(192,38,qs),
(259,4,ls),
(267,0,o),
(274,0,qs),
(377,0,ls),
(385,0,o),
(393,4,qs),
(460,38,ls),
(464,40,o),
(468,44,qs),
(537,112,l),
(538,112,o),
(538,113,q),
(542,118,o),
(546,129,o),
(546,141,o),
(540,153,o),
(532,161,o),
(520,167,o),
(513,167,qs),
(511,167,o),
(507,166,o),
(504,164,o),
(500,163,o),
(497,161,o),
(494,158,o),
(493,157,qs),
(427,92,l),
(370,63,l),
(282,63,l),
(225,92,l),
(165,153,l),
(135,242,l),
(135,274,l),
(515,274,ls),
(527,274,o),
(546,293,o),
(546,306,qs),
(546,375,ls),
(546,379,o),
(545,384,o),
(542,389,qs),
(509,457,l),
(509,458,o),
(508,459,qs),
(505,463,o),
(502,466,qs),
(468,500,ls),
(464,504,o),
(460,506,qs),
(392,539,l),
(385,544,o),
(377,544,qs),
(274,544,ls),
(270,544,o)
);
},
{
closed = 1;
nodes = (
(427,451,l),
(454,424,l),
(483,367,l),
(483,338,l),
(147,338,l),
(165,391,l),
(225,451,l),
(282,480,l),
(370,480,l)
);
}
);
width = 616;
}
);
note = e;
unicode = 101;
},
{
glyphname = f;
layers = (
{
.lastUpdate = 743689192.622;
layerId = m01;
shapes = (
{
closed = 1;
nodes = (
(259,780,qs),
(194,747,ls),
(179,739,o),
(176,727,q),
(142,626,l),
(140,615,l),
(140,544,l),
(69,544,ls),
(56,544,o),
(37,525,o),
(37,499,o),
(56,480,o),
(69,480,qs),
(140,480,l),
(140,32,ls),
(140,19,o),
(159,0,o),
(171,0,qs),
(178,0,o),
(189,5,o),
(198,14,o),
(203,26,o),
(203,32,qs),
(203,480,l),
(309,480,ls),
(321,480,o),
(340,499,o),
(340,512,qs),
(340,524,o),
(322,544,o),
(309,544,qs),
(203,544,l),
(203,611,l),
(231,696,l),
(282,721,l),
(343,721,ls),
(356,721,o),
(375,740,o),
(375,765,o),
(356,784,o),
(343,784,qs),
(274,784,ls),
(267,784,o)
);
}
);
width = 479;
}
);
note = f;
unicode = 102;
},
{
glyphname = g;
layers = (
{
.lastUpdate = 743689192.622;
layerId = m01;
shapes = (
{
closed = 1;
nodes = (
(483,512,qs),
(483,485,l),
(468,500,ls),
(464,504,o),
(460,506,qs),
(392,539,l),
(385,544,o),
(377,544,qs),
(274,544,ls),
(272,544,o),
(270,544,q),
(265,542,o),
(260,539,qs),
(192,506,ls),
(189,505,o),
(186,502,o),
(184,500,qs),
(117,433,ls),
(111,428,o),
(108,419,qs),
(73,317,ls),
(71,311,o),
(71,306,qs),
(71,238,l),
(71,236,ls),
(71,233,o),
(74,225,qs),
(108,125,l),
(108,124,l),
(111,116,o),
(115,112,qs),
(184,44,ls),
(186,42,o),
(190,39,o),
(192,38,qs),
(259,4,ls),
(267,0,o),
(274,0,qs),
(377,0,ls),
(385,0,o),
(393,4,qs),
(460,38,ls),
(464,40,o),
(468,44,qs),
(483,59,l),
(483,-33,l),
(453,-122,l),
(427,-148,l),
(370,-177,l),
(282,-177,l),
(221,-147,ls),
(218,-145,o),
(209,-143,o),
(205,-143,qs),
(193,-142,o),
(173,-160,o),
(173,-176,qs),
(172,-195,o),
(192,-203,q),
(259,-236,ls),
(267,-240,o),
(274,-240,qs),
(377,-240,ls),
(384,-240,o),
(392,-236,qs),
(460,-203,ls),
(462,-202,o),
(464,-200,qs),
(500,-164,ls),
(507,-158,o),
(510,-149,qs),
(544,-48,ls),
(545,-45,o),
(546,-40,o),
(546,-37,qs),
(546,512,ls),
(546,525,o),
(527,544,o),
(502,544,o),
(483,525,o)
);
},
{
closed = 1;
nodes = (
(427,451,l),
(483,396,l),
(483,147,l),
(427,92,l),
(370,63,l),
(282,63,l),
(225,92,l),
(165,153,l),
(135,242,l),
(135,302,l),
(165,391,l),
(225,451,l),
(282,480,l),
(370,480,l)
);
}
);
width = 685;
}
);
note = g;
unicode = 103;
},
{
glyphname = h;
layers = (
{
.lastUpdate = 743689192.622;
layerId = m01;
shapes = (
{
closed = 1;
nodes = (
(120,778,o),
(116,774,qs),
(106,765,o),
(106,752,qs),
(106,32,ls),
(106,19,o),
(125,0,o),
(137,0,qs),
(144,0,o),
(155,5,o),
(164,14,o),
(169,26,o),
(169,32,qs),
(169,362,l),
(259,451,l),
(316,480,l),
(404,480,l),
(454,456,l),
(483,371,l),
(483,32,ls),
(483,19,o),
(502,0,o),
(527,0,o),
(546,19,o),
(546,32,qs),
(546,375,ls),
(546,380,o),
(544,386,qs),
(510,487,l),
(507,500,o),
(494,506,qs),
(427,539,l),
(419,544,o),
(412,544,qs),
(309,544,ls),
(308,544,o),
(307,544,o),
(306,544,q),
(300,542,o),
(294,539,qs),
(226,506,ls),
(222,504,o),
(218,500,qs),
(169,451,l),
(169,752,ls),
(169,765,o),
(149,784,o),
(137,784,qs),
(131,784,o)
);
}
);
width = 685;
}
);
note = h;
unicode = 104;
},
{
glyphname = k;
layers = (
{
.lastUpdate = 743689192.625;
layerId = m01;
shapes = (
{
closed = 1;
nodes = (
(120,778,o),
(116,774,qs),
(106,765,o),
(106,752,qs),
(106,32,ls),
(106,19,o),
(125,0,o),
(137,0,qs),
(144,0,o),
(155,5,o),
(164,14,o),
(169,26,o),
(169,32,qs),
(169,156,l),
(272,260,l),
(490,12,l),
(499,0,o),
(527,0,o),
(546,19,o),
(546,32,qs),
(546,43,o),
(539,52,qs),
(318,304,l),
(501,489,ls),
(506,494,o),
(512,506,o),
(512,512,qs),
(512,525,o),
(493,544,o),
(468,544,o),
(458,534,qs),
(169,245,l),
(169,752,ls),
(169,765,o),
(149,784,o),
(137,784,qs),
(131,784,o)
);
}
);
width = 547;
}
);
note = k;
unicode = 107;
},
{
glyphname = l;
layers = (
{
.lastUpdate = 743689192.625;
layerId = m01;
shapes = (
{
closed = 1;
nodes = (
(123,778,o),
(119,774,qs),
(110,765,o),
(110,752,qs),
(110,32,ls),
(110,19,o),
(129,0,o),
(141,0,qs),
(148,0,o),
(159,5,o),
(168,14,o),
(173,26,o),
(173,32,qs),
(173,752,ls),
(173,765,o),
(153,784,o),
(141,784,qs),
(135,784,o)
);
}
);
width = 277;
}
);
note = l;
unicode = 108;
},
{
glyphname = m;
layers = (
{
.lastUpdate = 743689192.625;
layerId = m01;
shapes = (
{
closed = 1;
nodes = (
(120,538,o),
(116,534,qs),
(106,525,o),
(106,512,qs),
(106,32,ls),
(106,19,o),
(125,0,o),
(137,0,qs),
(144,0,o),
(155,5,o),
(164,14,o),
(169,26,o),
(169,32,qs),
(169,362,l),
(259,451,l),
(316,480,l),
(404,480,l),
(454,456,l),
(483,371,l),
(483,32,ls),
(483,19,o),
(502,0,o),
(527,0,o),
(546,19,o),
(546,32,qs),
(546,362,l),
(637,451,l),
(694,480,l),
(782,480,l),
(831,456,l),
(860,371,l),
(860,32,ls),
(860,19,o),
(879,0,o),
(905,0,o),
(924,19,o),
(924,32,qs),
(924,375,ls),
(924,380,o),
(921,387,qs),
(886,490,l),
(886,492,o),
(875,504,o),
(871,506,qs),
(804,539,l),
(803,540,o),
(800,541,o),
(796,543,o),
(791,544,o),
(789,544,qs),
(686,544,ls),
(684,544,o),
(683,544,qs),
(679,543,o),
(675,541,o),
(671,539,qs),
(605,506,l),
(599,504,o),
(595,500,qs),
(528,434,l),
(510,487,l),
(509,493,o),
(499,503,o),
(494,506,qs),
(427,539,l),
(419,544,o),
(412,544,qs),
(309,544,ls),
(308,544,o),
(307,544,o),
(306,544,q),
(300,542,o),
(294,539,qs),
(226,506,ls),
(222,504,o),
(218,500,qs),
(169,451,l),
(169,512,ls),
(169,525,o),
(149,544,o),
(137,544,qs),
(131,544,o)
);
}
);
width = 1028;
}
);
note = m;
unicode = 109;
},
{
glyphname = n;
layers = (
{
.lastUpdate = 743689192.625;
layerId = m01;
shapes = (
{
closed = 1;
nodes = (
(120,538,o),
(116,534,qs),
(106,525,o),
(106,512,qs),
(106,32,ls),
(106,19,o),
(125,0,o),
(137,0,qs),
(144,0,o),
(155,5,o),
(164,14,o),
(169,26,o),
(169,32,qs),
(169,362,l),
(259,451,l),
(316,480,l),
(404,480,l),
(454,456,l),
(483,371,l),
(483,32,ls),
(483,19,o),
(502,0,o),
(527,0,o),
(546,19,o),
(546,32,qs),
(546,375,ls),
(546,380,o),
(544,386,qs),
(510,487,l),
(507,500,o),
(494,506,qs),
(427,539,l),
(419,544,o),
(412,544,qs),
(309,544,ls),
(308,544,o),
(307,544,o),
(306,544,q),
(300,542,o),
(294,539,qs),
(226,506,ls),
(222,504,o),
(218,500,qs),
(169,451,l),
(169,512,ls),
(169,525,o),
(149,544,o),
(137,544,qs),
(131,544,o)
);
}
);
width = 685;
}
);
note = n;
unicode = 110;
},
{
glyphname = o;
layers = (
{
.lastUpdate = 743689192.626;
layerId = m01;
shapes = (
{
closed = 1;
nodes = (
(263,542,qs),
(257,539,l),
(192,506,l),
(184,500,l),
(117,433,ls),
(111,428,o),
(108,419,qs),
(73,317,ls),
(71,311,o),
(71,306,qs),
(71,238,l),
(71,236,ls),
(71,233,o),
(74,225,qs),
(108,125,l),
(108,124,o),
(108,124,q),
(111,116,o),
(115,112,qs),
(184,44,ls),
(186,42,o),
(190,39,o),
(192,38,qs),
(259,4,ls),
(267,0,o),
(274,0,qs),
(377,0,ls),
(385,0,o),
(393,4,qs),
(460,38,ls),
(464,40,o),
(468,44,qs),
(536,111,ls),
(541,116,o),
(544,125,qs),
(579,228,ls),
(581,233,o),
(581,238,qs),
(581,306,ls),
(581,307,o),
(581,308,qs),
(581,311,o),
(578,319,qs),
(544,420,l),
(544,420,l),
(543,421,o),
(543,421,q),
(541,427,o),
(537,431,qs),
(468,500,ls),
(464,504,o),
(460,506,qs),
(392,539,l),
(385,544,o),
(377,544,qs),
(270,544,ls),
(266,544,o)
);
},
{
closed = 1;
nodes = (
(427,451,l),
(487,391,l),
(517,302,l),
(517,242,l),
(487,153,l),
(427,92,l),
(370,63,l),
(282,63,l),
(225,92,l),
(165,153,l),
(135,242,l),
(135,302,l),
(165,391,l),
(225,451,l),
(282,480,l),
(370,480,l)
);
}
);
width = 685;
}
);
note = o;
unicode = 111;
},
{
glyphname = p;
layers = (
{
.lastUpdate = 743689192.626;
layerId = m01;
shapes = (
{
closed = 1;
nodes = (
(120,538,o),
(116,534,qs),
(106,525,o),
(106,512,qs),
(106,-209,ls),
(106,-215,o),
(112,-226,o),
(116,-230,qs),
(118,-232,o),
(123,-236,o),
(128,-239,o),
(134,-240,o),
(137,-240,qs),
(149,-240,o),
(169,-222,o),
(169,-209,qs),
(169,59,l),
(184,44,ls),
(186,42,o),
(190,39,o),
(192,38,qs),
(259,4,ls),
(267,0,o),
(274,0,qs),
(377,0,ls),
(385,0,o),
(393,4,qs),
(460,38,ls),
(464,40,o),
(468,44,qs),
(536,111,ls),
(541,116,o),
(544,125,qs),
(579,228,ls),
(581,233,o),
(581,238,qs),
(581,306,ls),
(581,307,o),
(581,308,qs),
(581,311,o),
(578,319,qs),
(544,420,l),
(544,420,l),
(543,421,o),
(543,421,q),
(541,427,o),
(537,431,qs),
(468,500,ls),
(464,504,o),
(460,506,qs),
(392,539,l),
(385,544,o),
(377,544,qs),
(274,544,ls),
(272,544,o),
(270,544,q),
(265,542,o),
(260,539,qs),
(192,506,ls),
(189,505,o),
(186,502,o),
(184,500,qs),
(169,485,l),
(169,512,ls),
(169,525,o),
(149,544,o),
(137,544,qs),
(131,544,o)
);
},
{
closed = 1;
nodes = (
(427,451,l),
(487,391,l),
(517,302,l),
(517,242,l),
(487,153,l),
(427,92,l),
(370,63,l),
(282,63,l),
(225,92,l),
(169,147,l),
(169,396,l),
(225,451,l),
(282,480,l),
(370,480,l)
);
}
);
width = 616;
}
);
note = p;
unicode = 112;
},
{
glyphname = q;
layers = (
{
.lastUpdate = 743689192.626;
layerId = m01;
shapes = (
{
closed = 1;
nodes = (
(483,512,qs),
(483,485,l),
(468,500,ls),
(464,504,o),
(460,506,qs),
(392,539,l),
(385,544,o),
(377,544,qs),
(274,544,ls),
(272,544,o),
(270,544,q),
(265,542,o),
(260,539,qs),
(192,506,ls),
(189,505,o),
(186,502,o),
(184,500,qs),
(117,433,ls),
(111,428,o),
(108,419,qs),
(73,317,ls),
(71,311,o),
(71,306,qs),
(71,238,l),
(71,236,ls),
(71,233,o),
(74,225,qs),
(108,125,l),
(108,124,l),
(111,116,o),
(115,112,qs),
(184,44,ls),
(186,42,o),
(190,39,o),
(192,38,qs),
(259,4,ls),
(267,0,o),
(274,0,qs),
(377,0,ls),
(385,0,o),
(393,4,qs),
(460,38,ls),
(464,40,o),
(468,44,qs),
(483,59,l),
(483,-209,ls),
(483,-215,o),
(488,-226,o),
(492,-230,qs),
(495,-232,o),
(500,-236,o),
(505,-239,o),
(511,-240,o),
(514,-240,qs),
(526,-240,o),
(546,-222,o),
(546,-209,qs),
(546,512,ls),
(546,525,o),
(527,544,o),
(502,544,o),
(483,525,o)
);
},
{
closed = 1;
nodes = (
(427,451,l),
(483,396,l),
(483,147,l),
(427,92,l),
(370,63,l),
(282,63,l),
(225,92,l),
(165,153,l),
(135,242,l),
(135,302,l),
(165,391,l),
(225,451,l),
(282,480,l),
(370,480,l)
);
}
);
width = 685;
}
);
note = q;
unicode = 113;
},
{
glyphname = r;
layers = (
{
.lastUpdate = 743689192.626;
layerId = m01;
shapes = (
{
closed = 1;
nodes = (
(169,525,o),
(149,544,o),
(137,544,qs),
(131,544,o),
(120,538,o),
(116,534,qs),
(106,525,o),
(106,512,qs),
(106,32,ls),
(106,19,o),
(125,0,o),
(137,0,qs),
(144,0,o),
(155,5,o),
(164,14,o),
(169,26,o),
(169,32,qs),
(169,302,l),
(199,391,l),
(259,451,l),
(316,480,l),
(412,480,ls),
(424,480,o),
(443,499,o),
(443,512,qs),
(443,524,o),
(425,544,o),
(412,544,qs),
(309,544,ls),
(308,544,o),
(307,544,o),
(306,544,q),
(300,542,o),
(294,539,qs),
(226,506,ls),
(222,504,o),
(218,500,qs),
(169,451,l),
(169,512,ls)
);
}
);
width = 410;
}
);
note = r;
unicode = 114;
},
{
glyphname = s;
layers = (
{
.lastUpdate = 743689192.626;
layerId = m01;
shapes = (
{
closed = 1;
nodes = (
(228,542,qs),
(125,506,l),
(123,506,o),
(119,503,o),
(112,495,o),
(109,490,qs),
(75,425,ls),
(73,421,o),
(71,414,o),
(71,410,qs),
(70,402,o),
(74,395,qs),
(109,327,l),
(111,324,ls),
(115,319,o),
(121,314,q),
(123,313,o),
(124,312,q),
(189,280,l),
(191,278,o),
(194,277,o),
(196,276,o),
(198,275,qs),
(199,274,o),
(200,274,qs),
(366,242,l),
(422,214,l),
(449,161,l),
(449,142,l),
(424,92,l),
(339,63,l),
(244,63,l),
(159,92,l),
(131,148,ls),
(123,167,o),
(105,167,qs),
(90,167,o),
(71,148,o),
(71,136,qs),
(71,127,o),
(75,119,qs),
(108,54,ls),
(116,39,o),
(128,36,q),
(229,2,ls),
(235,0,o),
(240,0,qs),
(343,0,ls),
(348,0,o),
(353,2,qs),
(456,36,ls),
(460,37,o),
(467,41,o),
(472,49,o),
(474,53,qs),
(508,119,ls),
(512,127,o),
(512,135,qs),
(512,169,ls),
(512,176,o),
(508,183,qs),
(473,251,l),
(473,253,o),
(472,254,qs),
(470,256,o),
(466,261,o),
(464,263,qs),
(460,266,l),
(393,299,l),
(387,302,l),
(217,336,l),
(161,364,l),
(139,409,l),
(159,452,l),
(244,480,l),
(339,480,l),
(424,452,l),
(452,395,ls),
(460,376,o),
(478,376,qs),
(493,376,o),
(512,396,o),
(512,408,qs),
(512,409,o),
(512,410,qs),
(513,416,o),
(508,425,qs),
(474,490,ls),
(467,503,o),
(456,507,qs),
(356,541,ls),
(351,543,o),
(346,544,o),
(343,544,qs),
(240,544,ls),
(235,544,o)
);
}
);
width = 616;
}
);
note = s;
unicode = 115;
},
{
glyphname = t;
layers = (
{
.lastUpdate = 743689192.626;
layerId = m01;
shapes = (
{
closed = 1;
nodes = (
(154,779,o),
(145,770,o),
(140,758,o),
(140,752,qs),
(140,544,l),
(69,544,ls),
(56,544,o),
(37,525,o),
(37,499,o),
(56,480,o),
(69,480,qs),
(140,480,l),
(140,169,ls),
(140,168,o),
(140,167,qs),
(140,164,o),
(142,157,qs),
(176,56,ls),
(179,45,o),
(193,38,qs),
(259,4,ls),
(267,0,o),
(274,0,qs),
(343,0,ls),
(356,0,o),
(375,19,o),
(375,44,o),
(356,63,o),
(343,63,qs),
(282,63,l),
(231,88,l),
(203,173,l),
(203,480,l),
(309,480,ls),
(321,480,o),
(340,499,o),
(340,512,qs),
(340,524,o),
(322,544,o),
(309,544,qs),
(203,544,l),
(203,752,ls),
(203,765,o),
(183,784,o),
(171,784,qs),
(165,784,o)
);
}
);
width = 479;
}
);
note = t;
unicode = 116;
},
{
glyphname = u;
layers = (
{
.lastUpdate = 743689192.626;
layerId = m01;
shapes = (
{
closed = 1;
nodes = (
(120,538,o),
(116,534,qs),
(106,525,o),
(106,512,qs),
(106,169,ls),
(106,168,o),
(106,167,qs),
(106,164,o),
(108,157,qs),
(142,56,l),
(143,51,o),
(147,46,o),
(154,41,o),
(159,38,qs),
(226,4,ls),
(233,0,o),
(240,0,qs),
(343,0,ls),
(350,0,o),
(359,5,qs),
(424,38,ls),
(426,39,o),
(432,42,o),
(434,44,qs),
(483,93,l),
(483,32,ls),
(483,19,o),
(502,0,o),
(527,0,o),
(546,19,o),
(546,32,qs),
(546,512,ls),
(546,525,o),
(527,544,o),
(502,544,o),
(483,525,o),
(483,512,qs),
(483,182,l),
(393,92,l),
(336,63,l),
(248,63,l),
(197,88,l),
(169,173,l),
(169,512,ls),
(169,525,o),
(149,544,o),
(137,544,qs),
(131,544,o)
);
}
);
width = 685;
}
);
note = u;
unicode = 117;
},
{
glyphname = v;
layers = (
{
.lastUpdate = 743689192.626;
layerId = m01;
shapes = (
{
closed = 1;
nodes = (
(283,1,o),
(285,2,qs),
(301,8,o),
(305,24,q),
(509,500,ls),
(512,506,o),
(512,514,qs),
(512,525,o),
(494,545,o),
(481,545,qs),
(480,545,ls),
(479,545,o),
(478,545,qs),
(462,543,o),
(453,526,q),
(452,526,o),
(452,525,q),
(274,113,l),
(98,523,ls),
(89,544,o),
(69,544,qs),
(68,544,ls),
(55,544,o),
(37,524,o),
(37,513,qs),
(37,509,o),
(38,502,o),
(40,498,qs),
(245,22,l),
(246,14,o),
(261,1,o),
(270,0,qs),
(271,0,o),
(272,0,qs),
(278,0,ls),
(280,0,o)
);
}
);
width = 547;
}
);
note = v;
unicode = 118;
},
{
glyphname = w;
layers = (
{
.lastUpdate = 743689192.626;
layerId = m01;
shapes = (
{
closed = 1;
nodes = (
(371,544,q),
(368,543,ls),
(364,541,o),
(361,539,qs),
(359,537,l),
(350,532,o),
(346,517,qs),
(240,147,l),
(133,519,ls),
(127,544,o),
(103,544,qs),
(90,544,o),
(71,525,o),
(71,512,qs),
(71,510,o),
(71,508,qs),
(72,504,l),
(209,25,l),
(210,25,o),
(210,24,o),
(210,23,q),
(218,8,o),
(228,3,q),
(228,2,o),
(229,2,q),
(230,1,o),
(234,0,o),
(236,0,qs),
(242,0,ls),
(244,0,o),
(245,0,q),
(251,2,ls),
(254,3,o),
(259,6,qs),
(267,10,o),
(271,25,qs),
(377,397,l),
(483,25,l),
(484,23,o),
(485,21,o),
(487,19,q),
(488,17,o),
(490,14,qs),
(496,6,o),
(502,3,q),
(502,2,o),
(503,2,q),
(504,1,o),
(508,0,o),
(510,0,qs),
(517,0,ls),
(518,0,o),
(520,0,q),
(526,2,l),
(533,6,ls),
(541,10,o),
(545,25,qs),
(681,502,l),
(682,503,o),
(683,508,o),
(684,513,o),
(684,515,qs),
(684,526,o),
(665,545,o),
(652,545,qs),
(641,545,o),
(624,531,o),
(621,520,qs),
(515,147,l),
(408,518,ls),
(402,536,o),
(390,542,q),
(389,542,o),
(389,542,q),
(386,544,o),
(382,544,qs),
(375,544,ls),
(373,544,o)
);
}
);
width = 753;
}
);
note = w;
unicode = 119;
},
{
glyphname = x;
layers = (
{
.lastUpdate = 743689192.626;
layerId = m01;
shapes = (
{
closed = 1;
nodes = (
(128,532,ls),
(118,544,o),
(104,544,qs),
(97,544,o),
(84,538,o),
(79,533,qs),
(64,519,o),
(76,495,qs),
(77,493,o),
(78,492,qs),
(252,272,l),
(79,52,l),
(70,43,o),
(70,31,qs),
(70,18,o),
(89,-1,o),
(104,-1,qs),
(112,-1,o),
(125,6,o),
(129,13,q),
(291,220,l),
(454,13,l),
(462,-1,o),
(479,-1,qs),
(494,-1,o),
(513,19,o),
(513,32,qs),
(513,44,o),
(505,53,qs),
(331,272,l),
(505,491,ls),
(509,496,o),
(513,506,o),
(513,512,qs),
(513,526,o),
(502,536,qs),
(492,545,o),
(478,545,qs),
(462,545,o),
(454,531,q),
(291,324,l)
);
}
);
width = 616;
}
);
note = x;
unicode = 120;
},
{
glyphname = y;
layers = (
{
.lastUpdate = 743689192.627;
layerId = m01;
shapes = (
{
closed = 1;
nodes = (
(479,545,o),
(478,545,qs),
(462,543,o),
(453,526,q),
(452,526,o),
(452,525,q),
(274,113,l),
(98,523,ls),
(89,544,o),
(69,544,qs),
(68,544,ls),
(55,544,o),
(37,524,o),
(37,513,qs),
(36,505,o),
(40,498,q),
(239,33,l),
(180,-87,l),
(118,-148,l),
(61,-177,l),
(34,-177,ls),
(22,-177,o),
(3,-196,o),
(3,-220,o),
(21,-240,o),
(34,-240,qs),
(69,-240,ls),
(76,-240,o),
(83,-236,qs),
(151,-203,ls),
(153,-202,o),
(155,-200,qs),
(159,-196,o),
(228,-128,qs),
(229,-127,o),
(230,-126,qs),
(233,-122,o),
(234,-119,q),
(302,15,ls),
(304,18,o),
(304,21,q),
(305,23,o),
(305,24,q),
(509,500,ls),
(512,506,o),
(512,514,qs),
(512,525,o),
(494,545,o),
(481,545,qs),
(480,545,ls)
);
}
);
width = 547;
}
);
note = y;
unicode = 121;
},
{
glyphname = z;
layers = (
{
.lastUpdate = 743689192.627;
layerId = m01;
shapes = (
{
closed = 1;
nodes = (
(75,15,o),
(76,13,qs),
(79,8,o),
(88,3,o),
(98,0,o),
(103,0,qs),
(480,0,ls),
(493,0,o),
(512,19,o),
(512,44,o),
(493,63,o),
(480,63,qs),
(168,63,l),
(502,489,l),
(512,498,o),
(512,510,qs),
(512,516,o),
(511,520,qs),
(511,522,o),
(510,524,qs),
(509,528,o),
(507,531,qs),
(498,544,o),
(480,544,qs),
(103,544,ls),
(90,544,o),
(71,525,o),
(71,499,o),
(90,480,o),
(103,480,qs),
(415,480,l),
(81,55,l),
(71,46,o),
(71,34,qs),
(71,27,o),
(73,22,q),
(73,20,o)
);
}
);
width = 616;
}
);
note = z;
unicode = 122;
},
{
glyphname = braceleft;
layers = (
{
.lastUpdate = 743689192.627;
layerId = m01;
shapes = (
{
closed = 1;
nodes = (
(282,388,o),
(286,395,q),
(287,395,o),
(287,396,q),
(312,464,l),
(315,478,l),
(315,546,ls),
(315,550,o),
(313,557,o),
(311,560,q),
(287,628,l),
(286,628,l),
(286,629,o),
(286,629,q),
(285,631,o),
(283,634,o),
(281,636,q),
(260,667,l),
(238,724,l),
(238,779,l),
(258,833,l),
(299,861,ls),
(315,871,o),
(315,887,qs),
(315,901,o),
(308,910,qs),
(300,921,o),
(289,921,qs),
(281,921,o),
(274,917,qs),
(224,884,ls),
(223,883,o),
(222,882,qs),
(216,876,l),
(216,875,o),
(215,874,qs),
(213,872,o),
(206,863,o),
(203,859,o),
(198,853,o),
(195,849,o),
(192,845,o),
(190,842,o),
(188,839,o),
(187,836,o),
(186,835,q),
(186,834,l),
(186,834,o),
(186,834,q),
(159,765,l),
(159,763,l),
(157,758,o),
(157,752,qs),
(157,685,ls),
(157,677,o),
(160,670,qs),
(185,604,l),
(185,603,l),
(186,601,o),
(187,597,o),
(189,595,qs),
(193,589,o),
(207,569,o),
(212,563,q),
(234,505,l),
(234,455,l),
(192,399,l),
(146,368,l),
(142,366,o),
(137,360,o),
(133,352,o),
(132,344,o),
(132,340,qs),
(132,324,o),
(144,314,q),
(144,314,l),
(145,313,o),
(145,313,q),
(192,282,l),
(234,226,l),
(234,176,l),
(212,118,ls),
(211,115,o),
(205,108,o),
(203,104,o),
(198,99,o),
(196,95,o),
(193,91,o),
(191,89,o),
(189,85,o),
(188,83,o),
(186,81,o),
(186,80,q),
(186,80,l),
(186,79,o),
(186,79,q),
(159,9,l),
(159,8,o),
(159,8,q),
(157,3,o),
(157,-3,qs),
(157,-70,ls),
(157,-78,o),
(160,-85,qs),
(185,-151,l),
(189,-160,l),
(194,-166,o),
(211,-188,o),
(215,-194,q),
(218,-197,o),
(221,-200,o),
(224,-202,qs),
(233,-208,o),
(266,-230,o),
(274,-236,qs),
(277,-238,o),
(285,-240,o),
(289,-240,qs),
(301,-240,o),
(309,-230,qs),
(316,-220,o),
(316,-206,qs),
(316,-198,o),
(309,-185,o),
(301,-181,q),
(258,-152,l),
(238,-98,l),
(238,-43,l),
(260,15,l),
(281,45,l),
(286,52,l),
(286,52,l),
(287,53,o),
(287,53,q),
(312,121,ls),
(313,124,o),
(315,132,o),
(315,135,qs),
(315,203,l),
(314,211,o),
(311,217,q),
(287,285,l),
(286,286,o),
(286,288,o),
(285,289,qs),
(281,293,o),
(277,297,qs),
(276,298,o),
(275,299,qs),
(225,334,l),
(223,334,o),
(222,335,qs),
(214,340,l),
(226,348,l),
(276,383,ls)
);
}
);
width = 479;
}
);
note = braceleft;
unicode = 123;
},
{
glyphname = bar;
layers = (
{
.lastUpdate = 743689192.627;
layerId = m01;
shapes = (
{
closed = 1;
nodes = (
(120,915,o),
(116,911,qs),
(106,902,o),
(106,889,qs),
(106,-209,ls),
(106,-215,o),
(112,-226,o),
(116,-230,qs),
(118,-232,o),
(123,-236,o),
(128,-239,o),
(134,-240,o),
(137,-240,qs),
(149,-240,o),
(169,-222,o),
(169,-209,qs),
(169,889,ls),
(169,902,o),
(149,921,o),
(137,921,qs),
(131,921,o)
);
}
);
width = 273;
}
);
note = bar;
unicode = 124;
},
{
glyphname = braceright;
layers = (
{
.lastUpdate = 743689192.627;
layerId = m01;
shapes = (
{
closed = 1;
nodes = (
(201,296,o),
(196,290,o),
(194,286,q),
(193,286,o),
(193,285,q),
(168,217,ls),
(165,209,o),
(165,203,qs),
(165,135,ls),
(165,127,o),
(168,121,q),
(193,53,l),
(194,52,l),
(196,48,o),
(199,45,q),
(221,14,l),
(243,-43,l),
(243,-98,l),
(223,-152,l),
(180,-181,ls),
(177,-183,o),
(171,-188,o),
(167,-194,o),
(164,-202,o),
(164,-206,qs),
(164,-220,o),
(172,-229,qs),
(181,-240,o),
(192,-240,qs),
(201,-240,o),
(208,-235,qs),
(257,-203,l),
(257,-202,o),
(258,-202,q),
(259,-201,o),
(259,-201,q),
(264,-196,ls),
(266,-194,o),
(267,-191,q),
(290,-161,ls),
(293,-157,o),
(295,-154,q),
(295,-153,o),
(295,-153,q),
(320,-85,l),
(324,-71,l),
(324,-3,ls),
(324,1,o),
(322,8,o),
(320,11,q),
(295,79,l),
(295,80,l),
(293,84,o),
(290,87,q),
(267,118,l),
(246,176,l),
(246,226,l),
(288,282,l),
(331,310,ls),
(337,314,o),
(345,321,o),
(348,329,o),
(349,335,o),
(349,340,qs),
(349,357,o),
(337,367,qs),
(336,368,o),
(335,368,q),
(288,399,l),
(246,455,l),
(246,505,l),
(267,563,l),
(290,594,l),
(295,601,l),
(295,602,o),
(295,602,q),
(320,670,l),
(322,673,o),
(324,681,o),
(324,684,qs),
(324,752,l),
(323,760,o),
(320,766,q),
(295,834,l),
(295,834,l),
(295,835,o),
(295,835,q),
(293,838,o),
(290,842,qs),
(266,874,ls),
(262,880,o),
(258,883,qs),
(208,916,ls),
(200,921,o),
(192,921,qs),
(180,921,o),
(172,910,qs),
(164,898,o),
(167,872,o),
(178,863,q),
(178,862,o),
(179,862,q),
(223,833,l),
(243,779,l),
(243,724,l),
(221,667,l),
(199,636,ls),
(198,635,o),
(195,631,o),
(194,629,q),
(193,629,o),
(193,628,q),
(168,560,ls),
(165,552,o),
(165,546,qs),
(165,478,ls),
(165,470,o),
(168,464,q),
(193,396,l),
(194,395,o),
(194,394,o),
(195,393,qs),
(198,388,o),
(202,384,qs),
(204,382,l),
(255,347,l),
(257,347,o),
(258,346,qs),
(266,340,l),
(254,333,l),
(204,298,ls)
);
}
);
width = 479;
}
);
note = braceright;
unicode = 125;
},
{
glyphname = asciitilde;
layers = (
{
.lastUpdate = 743689192.627;
layerId = m01;
shapes = (
{
closed = 1;
nodes = (
(322,412,ls),
(315,415,o),
(309,415,qs),
(257,415,ls),
(252,415,o),
(247,413,qs),
(195,396,l),
(195,395,o),
(195,395,q),
(187,392,o),
(183,388,qs),
(181,386,o),
(180,384,qs),
(176,376,o),
(160,343,o),
(155,333,q),
(153,324,l),
(153,289,ls),
(153,282,o),
(159,274,o),
(163,271,qs),
(166,269,o),
(171,267,o),
(177,266,o),
(180,266,qs),
(188,266,o),
(196,270,qs),
(208,278,o),
(208,289,qs),
(208,317,l),
(225,338,l),
(263,352,l),
(303,352,l),
(347,336,l),
(448,286,ls),
(451,285,o),
(455,284,qs),
(503,268,ls),
(509,266,o),
(515,266,qs),
(566,266,ls),
(571,266,o),
(577,268,qs),
(627,284,l),
(628,285,o),
(628,285,q),
(638,288,o),
(642,295,qs),
(643,297,ls),
(646,304,o),
(655,321,o),
(664,340,o),
(668,348,q),
(670,358,l),
(670,392,l),
(671,401,o),
(661,409,qs),
(653,415,o),
(633,415,o),
(616,404,o),
(616,392,qs),
(616,364,l),
(599,342,l),
(560,329,l),
(520,329,l),
(476,345,l),
(375,395,l),
(371,396,l),
(363,398,l)
);
}
);
width = 822;
}
);
note = asciitilde;
unicode = 126;
},
{
glyphname = dieresis;
layers = (
{
.lastUpdate = 743689192.627;
layerId = m01;
shapes = (
{
closed = 1;
nodes = (
(312,784,qs),
(305,784,l),
(301,783,ls),
(290,780,o),
(283,772,qs),
(252,740,ls),
(242,730,o),
(242,706,o),
(252,696,qs),
(287,661,ls),
(296,653,o),
(306,652,qs),
(318,650,o),
(330,660,qs),
(331,661,o),
(331,661,q),
(365,696,ls),
(375,706,o),
(375,730,o),
(365,740,qs),
(334,772,l),
(326,782,o),
(314,784,qs),
(313,784,o)
);
},
{
closed = 1;
nodes = (
(141,784,o),
(141,784,q),
(134,784,ls),
(132,784,o),
(130,783,q),
(125,782,o),
(116,777,o),
(112,772,qs),
(81,740,ls),
(76,735,o),
(71,723,o),
(71,717,qs),
(70,706,o),
(81,696,qs),
(115,661,ls),
(125,651,o),
(137,651,qs),
(143,651,o),
(154,656,o),
(159,661,qs),
(194,696,ls),
(202,705,o),
(203,715,qs),
(204,720,o),
(202,728,o),
(198,736,o),
(195,739,qs),
(194,740,o),
(194,740,q),
(163,772,l),
(160,776,o),
(149,783,o),
(143,784,qs),
(142,784,ls)
);
}
);
width = 445;
}
);
note = dieresis;
unicode = 168;
},
{
glyphname = guillemotleft;
layers = (
{
.lastUpdate = 743689192.615;
layerId = m01;
shapes = (
{
closed = 1;
nodes = (
(263,272,l),
(404,384,l),
(404,385,o),
(404,385,q),
(406,386,o),
(408,388,o),
(410,391,o),
(412,394,o),
(414,398,o),
(415,401,o),
(416,405,o),
(416,407,qs),
(416,411,o),
(414,419,o),
(410,426,o),
(408,429,qs),
(400,440,o),
(388,442,qs),
(376,443,o),
(364,434,qs),
(194,297,ls),
(182,287,o),
(182,272,qs),
(182,256,o),
(194,246,qs),
(364,109,ls),
(375,101,o),
(386,102,qs),
(398,103,o),
(408,115,qs),
(417,126,o),
(416,138,qs),
(416,141,o),
(414,147,o),
(410,153,o),
(406,157,o),
(404,159,q),
(404,160,l)
);
},
{
closed = 1;
nodes = (
(92,272,l),
(233,384,l),
(233,385,l),
(244,394,o),
(245,406,qs),
(245,413,o),
(241,424,o),
(237,429,qs),
(228,441,o),
(203,443,o),
(192,434,qs),
(22,297,ls),
(10,287,o),
(10,272,qs),
(10,256,o),
(22,246,qs),
(192,109,l),
(193,109,l),
(204,101,o),
(215,102,qs),
(228,104,o),
(246,126,o),
(245,138,qs),
(244,144,o),
(238,155,o),
(233,159,q),
(233,160,l)
);
}
);
width = 445;
}
);
note = guillemotleft;
unicode = 171;
},
{
glyphname = macron;
layers = (
{
.lastUpdate = 743689192.616;
layerId = m01;
shapes = (
{
closed = 1;
nodes = (
(-32,799,o),
(-32,774,o),
(-13,755,o),
(0,755,qs),
(269,755,ls),
(282,755,o),
(301,774,o),
(301,799,o),
(282,818,o),
(269,818,qs),
(0,818,ls),
(-13,818,o)
);
}
);
width = 267;
}
);
note = macron;
unicode = 175;
},
{
glyphname = degree;
layers = (
{
.lastUpdate = 743689192.617;
layerId = m01;
shapes = (
{
closed = 1;
nodes = (
(261,782,l),
(258,781,l),
(256,781,o),
(255,780,q),
(189,745,l),
(188,744,ls),
(186,743,o),
(184,741,o),
(182,739,o),
(179,737,o),
(177,735,o),
(175,733,o),
(175,732,q),
(142,664,ls),
(138,657,o),
(138,649,qs),
(138,581,ls),
(138,575,o),
(142,564,o),
(146,559,qs),
(147,558,o),
(147,558,q),
(216,490,ls),
(226,480,o),
(238,480,qs),
(307,480,ls),
(314,480,o),
(322,485,q),
(389,518,ls),
(391,519,o),
(392,520,qs),
(397,524,o),
(402,530,q),
(403,532,o),
(404,533,q),
(437,599,ls),
(441,607,o),
(441,615,qs),
(441,684,ls),
(441,690,o),
(436,702,o),
(432,706,qs),
(363,774,ls),
(358,778,o),
(347,784,o),
(341,784,qs),
(268,784,l)
);
},
{
closed = 1;
nodes = (
(378,671,l),
(378,622,l),
(352,570,l),
(299,544,l),
(251,544,l),
(201,593,l),
(201,642,l),
(228,694,l),
(280,721,l),
(328,721,l)
);
}
);
width = 579;
}
);
note = degree;
unicode = 176;
},
{
glyphname = plusminus;
layers = (
{
.lastUpdate = 743689192.617;
layerId = m01;
shapes = (
{
closed = 1;
nodes = (
(115,259,qs),
(111,255,o),
(106,244,o),
(106,238,qs),
(106,231,o),
(111,220,o),
(120,211,o),
(131,206,o),
(137,206,qs),
(755,206,ls),
(761,206,o),
(773,211,o),
(777,216,qs),
(780,219,o),
(784,226,o),
(786,234,o),
(786,238,qs),
(786,244,o),
(780,256,o),
(776,260,qs),
(774,262,o),
(770,265,o),
(764,268,o),
(758,269,o),
(755,269,qs),
(137,269,ls),
(124,269,o)
);
},
{
closed = 1;
nodes = (
(414,649,qs),
(414,475,l),
(137,475,ls),
(131,475,o),
(120,469,o),
(116,465,qs),
(106,456,o),
(106,432,o),
(124,412,o),
(137,412,qs),
(414,412,l),
(414,311,ls),
(414,298,o),
(433,279,o),
(459,279,o),
(478,298,o),
(478,311,qs),
(478,412,l),
(755,412,ls),
(767,412,o),
(786,432,o),
(786,444,qs),
(786,455,o),
(768,475,o),
(755,475,qs),
(478,475,l),
(478,649,ls),
(478,662,o),
(459,681,o),
(433,681,o),
(414,662,o)
);
}
);
width = 891;
}
);
note = plusminus;
unicode = 177;
},
{
glyphname = acute;
layers = (
{
.lastUpdate = 743689192.617;
layerId = m01;
shapes = (
{
closed = 1;
nodes = (
(215,819,o),
(208,819,qs),
(197,820,o),
(186,811,qs),
(-20,640,ls),
(-31,631,o),
(-34,608,o),
(-24,595,qs),
(-16,584,o),
(-2,583,qs),
(12,583,o),
(21,592,q),
(226,762,ls),
(231,767,o),
(238,777,o),
(238,784,qs),
(239,795,o),
(230,806,qs),
(226,811,o)
);
}
);
width = 204;
}
);
note = acute;
unicode = 180;
},
{
glyphname = periodcentered;
layers = (
{
.lastUpdate = 743689192.617;
layerId = m01;
shapes = (
{
closed = 1;
nodes = (
(124,537,o),
(113,526,qs),
(81,493,ls),
(72,484,o),
(71,471,qs),
(71,459,o),
(82,449,qs),
(115,415,ls),
(125,405,o),
(137,405,qs),
(144,405,o),
(154,411,o),
(159,416,qs),
(194,449,ls),
(198,453,o),
(203,463,o),
(203,468,qs),
(204,475,o),
(199,487,o),
(195,492,qs),
(194,493,o),
(194,493,q),
(162,526,ls),
(158,530,o),
(154,533,o),
(146,537,o),
(141,537,qs),
(134,537,ls)
);
}
);
width = 273;
}
);
note = periodcentered;
unicode = 183;
},
{
glyphname = cedilla;
layers = (
{
.lastUpdate = 743689192.617;
layerId = m01;
shapes = (
{
closed = 1;
nodes = (
(53,-238,qs),
(100,-238,ls),
(106,-238,o),
(120,-233,o),
(125,-228,qs),
(174,-179,ls),
(184,-170,o),
(184,-157,qs),
(184,-61,ls),
(184,-47,o),
(170,-34,q),
(159,-26,o),
(138,-28,o),
(129,-37,qs),
(124,-42,o),
(120,-53,o),
(120,-60,qs),
(120,-131,l),
(112,-125,o),
(103,-125,qs),
(53,-125,ls),
(42,-125,o),
(22,-144,o),
(22,-157,qs),
(22,-206,ls),
(22,-212,o),
(27,-224,o),
(36,-233,o),
(47,-238,o)
);
}
);
width = 273;
}
);
note = cedilla;
unicode = 184;
},
{
glyphname = guillemotright;
layers = (
{
.lastUpdate = 743689192.618;
layerId = m01;
shapes = (
{
closed = 1;
nodes = (
(23,159,q),
(13,150,o),
(12,138,qs),
(11,131,o),
(16,120,o),
(20,115,qs),
(23,111,o),
(29,106,o),
(37,102,o),
(42,102,qs),
(52,101,o),
(63,109,qs),
(235,246,l),
(247,257,o),
(246,273,qs),
(246,280,o),
(240,292,o),
(235,297,q),
(63,434,ls),
(58,438,o),
(46,443,o),
(39,442,qs),
(28,440,o),
(19,429,qs),
(11,419,o),
(12,407,qs),
(13,394,o),
(24,384,q),
(24,384,o),
(24,384,q),
(164,272,l),
(24,160,ls),
(23,159,o)
);
},
{
closed = 1;
nodes = (
(195,159,q),
(185,150,o),
(184,138,qs),
(183,131,o),
(188,120,o),
(192,115,qs),
(196,109,o),
(207,103,o),
(214,102,qs),
(224,101,o),
(235,109,qs),
(406,246,ls),
(418,257,o),
(418,272,qs),
(418,279,o),
(411,293,o),
(406,297,qs),
(235,434,ls),
(223,444,o),
(211,442,qs),
(200,440,o),
(191,429,qs),
(183,419,o),
(184,407,qs),
(184,400,o),
(190,390,o),
(195,385,qs),
(196,384,o),
(196,384,q),
(336,272,l),
(196,160,ls),
(195,159,o)
);
}
);
width = 445;
}
);
note = guillemotright;
unicode = 187;
},
{
glyphname = questiondown;
layers = (
{
.lastUpdate = 743689192.618;
layerId = m01;
shapes = (
{
closed = 1;
nodes = (
(388,2,o),
(391,4,qs),
(460,38,ls),
(464,40,o),
(468,44,qs),
(502,78,ls),
(507,83,o),
(509,87,qs),
(543,155,ls),
(546,162,o),
(546,169,qs),
(546,203,ls),
(546,207,o),
(544,215,o),
(539,223,o),
(536,226,qs),
(532,230,o),
(520,235,o),
(514,235,qs),
(502,235,o),
(483,216,o),
(483,203,qs),
(483,176,l),
(454,119,l),
(427,92,l),
(370,63,l),
(248,63,l),
(191,92,l),
(164,119,l),
(135,176,l),
(135,230,l),
(164,287,l),
(191,314,l),
(324,382,ls),
(340,390,o),
(340,409,qs),
(340,512,ls),
(340,525,o),
(321,544,o),
(296,544,o),
(277,525,o),
(277,512,qs),
(277,429,l),
(159,369,l),
(153,367,o),
(149,363,qs),
(115,328,ls),
(111,324,o),
(109,320,qs),
(75,253,ls),
(74,251,o),
(73,248,o),
(72,244,o),
(71,240,o),
(71,238,qs),
(71,169,ls),
(71,162,o),
(76,153,qs),
(109,88,l),
(111,82,o),
(115,78,qs),
(149,44,ls),
(150,43,o),
(151,42,qs),
(155,39,o),
(158,38,qs),
(226,4,ls),
(233,0,o),
(240,0,qs),
(377,0,ls),
(381,0,o)
);
},
{
closed = 1;
nodes = (
(305,652,qs),
(312,652,ls),
(313,652,o),
(315,652,o),
(316,652,q),
(327,656,o),
(334,664,qs),
(365,696,ls),
(375,706,o),
(375,730,o),
(365,740,qs),
(331,774,ls),
(320,784,o),
(308,784,qs),
(302,784,o),
(292,778,o),
(287,773,qs),
(252,740,ls),
(242,730,o),
(242,706,o),
(252,696,qs),
(283,664,l),
(291,654,o),
(303,652,qs),
(304,652,o)
);
}
);
width = 616;
}
);
note = questiondown;
unicode = 191;
},
{
glyphname = germandbls;
layers = (
{
.lastUpdate = 743689192.628;
layerId = m01;
shapes = (
{
closed = 1;
nodes = (
(184,58,o),
(180,54,qs),
(177,51,o),
(174,46,o),
(171,41,o),
(170,35,o),
(170,32,qs),
(170,19,o),
(189,0,o),
(202,0,qs),
(446,0,ls),
(451,0,o),
(456,2,qs),
(558,36,l),
(559,36,o),
(560,37,o),
(561,37,q),
(568,41,o),
(571,44,qs),
(605,78,ls),
(610,83,o),
(612,87,qs),
(646,155,ls),
(649,162,o),
(649,169,qs),
(649,272,ls),
(649,279,o),
(646,286,qs),
(612,354,ls),
(610,358,o),
(605,363,qs),
(571,397,ls),
(567,401,o),
(559,404,q),
(558,404,o),
(558,404,q),
(545,409,l),
(558,414,ls),
(562,415,o),
(568,418,o),
(571,421,qs),
(604,455,ls),
(605,456,o),
(607,457,o),
(611,462,o),
(612,464,qs),
(646,533,l),
(649,546,l),
(649,615,ls),
(649,622,o),
(646,629,qs),
(612,697,ls),
(610,701,o),
(605,706,qs),
(571,740,ls),
(567,744,o),
(559,747,q),
(559,747,l),
(456,782,ls),
(451,784,o),
(446,784,qs),
(307,784,ls),
(302,784,o),
(297,782,qs),
(194,747,ls),
(187,745,o),
(182,740,qs),
(148,706,l),
(147,704,o),
(145,702,o),
(142,699,o),
(141,697,qs),
(107,629,ls),
(106,626,o),
(106,623,qs),
(106,-208,ls),
(106,-214,o),
(112,-226,o),
(116,-230,qs),
(118,-232,o),
(123,-236,o),
(128,-239,o),
(134,-240,o),
(137,-240,qs),
(144,-240,o),
(155,-234,o),
(159,-230,q),
(161,-229,o),
(163,-226,o),
(165,-223,o),
(166,-220,o),
(168,-217,o),
(169,-213,o),
(169,-210,o),
(169,-208,qs),
(169,377,l),
(442,377,l),
(531,347,l),
(557,321,l),
(586,264,l),
(586,176,l),
(557,119,l),
(531,93,l),
(442,63,l),
(202,63,ls),
(196,63,o)
);
},
{
closed = 1;
nodes = (
(258,29,o),
(229,29,o),
(229,0,o),
(258,0,o)
);
},
{
closed = 1;
nodes = (
(258,63,o),
(229,63,o),
(229,34,o),
(258,34,o)
);
},
{
closed = 1;
nodes = (
(531,690,l),
(557,665,l),
(586,608,l),
(586,554,l),
(557,497,l),
(531,471,l),
(442,441,l),
(169,441,l),
(169,614,l),
(195,664,l),
(222,690,l),
(311,721,l),
(442,721,l)
);
}
);
width = 685;
}
);
note = germandbls;
unicode = 223;
},
{
glyphname = dotlessi;
layers = (
{
.lastUpdate = 743689192.615;
layerId = m01;
shapes = (
{
closed = 1;
nodes = (
(120,538,o),
(116,534,qs),
(106,525,o),
(106,512,qs),
(106,32,ls),
(106,19,o),
(125,0,o),
(137,0,qs),
(144,0,o),
(155,5,o),
(164,14,o),
(169,26,o),
(169,32,qs),
(169,512,ls),
(169,525,o),
(149,544,o),
(137,544,qs),
(131,544,o)
);
}
);
width = 273;
}
);
note = dotlessi;
unicode = 305;
},
{
glyphname = uni0237;
layers = (
{
.lastUpdate = 743689192.627;
layerId = m01;
shapes = (
{
closed = 1;
nodes = (
(169,516,o),
(166,525,o),
(161,532,o),
(158,535,q),
(157,537,o),
(153,539,o),
(149,542,o),
(144,543,o),
(140,544,o),
(137,544,qs),
(133,544,o),
(127,542,o),
(121,540,o),
(116,536,o),
(114,534,qs),
(105,523,o),
(106,511,q),
(106,-67,l),
(77,-152,l),
(27,-177,l),
(-34,-177,ls),
(-47,-177,o),
(-66,-196,o),
(-66,-209,qs),
(-66,-213,o),
(-63,-222,o),
(-59,-229,o),
(-56,-232,qs),
(-46,-240,o),
(-33,-240,qs),
(34,-240,ls),
(38,-240,o),
(45,-239,o),
(48,-237,qs),
(60,-231,o),
(106,-208,o),
(118,-202,qs),
(120,-201,o),
(124,-198,o),
(129,-193,o),
(132,-186,o),
(133,-183,qs),
(167,-81,ls),
(169,-76,o),
(169,-71,qs),
(169,512,ls)
);
}
);
width = 273;
}
);
note = uni0237;
unicode = 567;
},
{
glyphname = ogonek;
layers = (
{
.lastUpdate = 743689192.627;
layerId = m01;
shapes = (
{
closed = 1;
nodes = (
(184,-494,qs),
(184,-444,ls),
(184,-438,o),
(179,-426,o),
(169,-418,o),
(159,-413,o),
(153,-413,qs),
(103,-413,ls),
(100,-413,o),
(95,-414,o),
(89,-416,o),
(85,-418,q),
(85,-348,ls),
(86,-333,o),
(75,-323,qs),
(70,-319,o),
(58,-314,o),
(41,-316,o),
(35,-322,qs),
(21,-335,o),
(22,-349,qs),
(22,-444,ls),
(22,-457,o),
(31,-466,qs),
(81,-516,ls),
(86,-521,o),
(98,-527,o),
(106,-526,q),
(153,-526,ls),
(159,-526,o),
(170,-520,o),
(178,-512,o),
(184,-500,o)
);
}
);
width = 204;
}
);
note = ogonek;
unicode = 731;
},
{
glyphname = endash;
layers = (
{
.lastUpdate = 743689192.627;
layerId = m01;
shapes = (
{
closed = 1;
nodes = (
(121,364,l),
(119,364,o),
(117,361,o),
(114,359,o),
(111,356,o),
(109,352,o),
(107,348,o),
(106,343,o),
(106,341,qs),
(106,327,o),
(119,316,qs),
(120,315,o),
(120,315,q),
(125,312,o),
(132,309,o),
(137,309,qs),
(531,309,ls),
(544,309,o),
(563,328,o),
(563,353,o),
(544,372,o),
(531,372,qs),
(137,372,l),
(129,370,l)
);
}
);
width = 668;
}
);
note = endash;
unicode = 8211;
},
{
glyphname = emdash;
layers = (
{
.lastUpdate = 743689192.627;
layerId = m01;
shapes = (
{
closed = 1;
nodes = (
(115,362,qs),
(106,353,o),
(106,341,qs),
(106,328,o),
(125,309,o),
(137,309,qs),
(755,309,ls),
(768,309,o),
(786,329,o),
(786,353,o),
(767,372,o),
(755,372,qs),
(137,372,ls),
(124,372,o)
);
}
);
width = 891;
}
);
note = emdash;
unicode = 8212;
},
{
glyphname = Euro;
layers = (
{
.lastUpdate = 743689192.628;
layerId = m01;
shapes = (
{
closed = 1;
nodes = (
(127,322,o),
(127,298,o),
(146,279,o),
(158,279,qs),
(423,279,ls),
(436,279,o),
(445,289,qs),
(454,298,o),
(454,310,qs),
(454,323,o),
(435,342,o),
(423,342,qs),
(158,342,ls),
(145,342,o)
);
},
{
closed = 1;
nodes = (
(9,323,o),
(9,298,o),
(28,279,o),
(41,279,qs),
(55,279,ls),
(68,279,o),
(87,298,o),
(87,323,o),
(68,342,o),
(55,342,qs),
(41,342,ls),
(28,342,o)
);
},
{
closed = 1;
nodes = (
(136,497,qs),
(127,488,o),
(127,476,qs),
(127,463,o),
(146,444,o),
(158,444,qs),
(423,444,ls),
(436,444,o),
(454,464,o),
(454,488,o),
(435,507,o),
(423,507,qs),
(158,507,ls),
(145,507,o)
);
},
{
closed = 1;
nodes = (
(9,488,o),
(9,463,o),
(28,444,o),
(41,444,qs),
(55,444,ls),
(68,444,o),
(87,463,o),
(87,488,o),
(68,507,o),
(55,507,qs),
(41,507,ls),
(28,507,o)
);
},
{
closed = 1;
nodes = (
(298,783,o),
(295,781,qs),
(226,746,ls),
(222,744,o),
(218,740,qs),
(149,671,ls),
(145,667,o),
(143,663,qs),
(109,594,l),
(109,593,l),
(108,592,o),
(108,591,q),
(73,490,l),
(73,488,o),
(72,485,o),
(71,482,o),
(71,479,o),
(71,478,qs),
(71,306,ls),
(71,302,o),
(71,300,o),
(73,294,qs),
(108,194,l),
(108,193,o),
(108,192,qs),
(108,191,l),
(109,190,o),
(109,189,q),
(143,122,l),
(145,116,o),
(149,112,qs),
(218,44,ls),
(222,40,o),
(226,38,qs),
(295,4,ls),
(302,0,o),
(309,0,qs),
(446,0,ls),
(453,0,o),
(462,5,qs),
(527,38,l),
(528,38,o),
(532,40,o),
(536,43,o),
(537,44,qs),
(605,112,ls),
(610,117,o),
(612,121,qs),
(645,188,ls),
(649,196,o),
(649,205,qs),
(649,216,o),
(631,236,o),
(615,236,qs),
(606,236,o),
(593,226,o),
(589,217,qs),
(557,154,l),
(496,92,l),
(439,63,l),
(316,63,l),
(259,92,l),
(198,154,l),
(167,215,l),
(135,310,l),
(135,473,l),
(167,569,l),
(198,630,l),
(259,692,l),
(316,721,l),
(439,721,l),
(496,692,l),
(557,630,l),
(589,567,l),
(597,548,o),
(615,548,qs),
(630,548,o),
(649,567,o),
(649,579,qs),
(649,588,o),
(645,596,qs),
(612,663,l),
(611,664,o),
(610,666,o),
(609,667,qs),
(605,671,o),
(537,740,qs),
(536,741,o),
(535,742,qs),
(533,743,o),
(529,745,o),
(528,746,q),
(460,781,ls),
(453,784,o),
(446,784,qs),
(309,784,ls),
(305,784,o)
);
}
);
width = 753;
}
);
note = Euro;
unicode = 8364;
},
{
glyphname = arrowleft;
layers = (
{
.lastUpdate = 743689192.628;
layerId = m01;
shapes = (
{
closed = 1;
nodes = (
(401,74,ls),
(409,66,o),
(423,66,qs),
(437,65,o),
(446,74,qs),
(450,79,o),
(455,90,o),
(455,96,qs),
(455,110,o),
(446,119,qs),
(207,357,l),
(853,357,ls),
(862,357,o),
(873,366,q),
(874,366,o),
(874,366,q),
(875,367,o),
(875,367,q),
(877,369,o),
(880,374,o),
(882,379,o),
(884,384,o),
(884,387,qs),
(884,395,o),
(877,408,qs),
(875,412,o),
(871,414,qs),
(859,419,ls),
(856,420,o),
(853,420,qs),
(208,420,l),
(453,665,ls),
(456,668,o),
(459,675,o),
(461,683,o),
(461,687,qs),
(461,700,o),
(453,709,q),
(454,709,o),
(453,710,qs),
(451,712,o),
(446,715,o),
(441,717,o),
(436,718,o),
(433,719,q),
(418,721,o),
(408,710,qs),
(109,411,l),
(104,407,o),
(100,397,o),
(100,391,qs),
(99,382,o),
(102,376,q),
(103,375,o),
(104,373,o),
(106,370,o),
(107,369,qs),
(112,363,l)
);
}
);
width = 924;
}
);
note = arrowleft;
unicode = 8592;
},
{
glyphname = arrowup;
lastChange = "2024-07-26 12:22:45 +0000";
layers = (
{
.lastUpdate = 743689365.52;
layerId = m01;
shapes = (
{
closed = 1;
nodes = (
(140,443,ls),
(131,435,o),
(131,421,qs),
(131,416,o),
(136,403,o),
(140,399,qs),
(143,396,o),
(150,392,o),
(158,390,o),
(166,390,o),
(174,392,o),
(182,396,o),
(185,399,qs),
(423,637,l),
(423,-8,ls),
(423,-12,o),
(426,-20,o),
(429,-26,o),
(432,-29,q),
(432,-29,l),
(433,-30,o),
(433,-30,q),
(436,-33,o),
(442,-36,o),
(449,-39,o),
(453,-39,qs),
(461,-39,o),
(474,-32,qs),
(478,-30,o),
(480,-26,qs),
(485,-14,ls),
(486,-11,o),
(486,-8,qs),
(486,637,l),
(731,392,ls),
(740,384,o),
(753,383,qs),
(766,383,o),
(775,391,q),
(775,392,l),
(778,395,o),
(782,402,o),
(783,407,o),
(784,412,qs),
(787,427,o),
(776,437,qs),
(477,736,ls),
(470,744,o),
(457,745,qs),
(456,745,o),
(452,745,o),
(448,744,o),
(444,743,o),
(442,742,qs),
(439,740,o),
(435,738,q),
(429,733,l)
);
}
);
width = 924;
}
);
note = arrowup;
unicode = 8593;
changeCount = 41;
},
{
glyphname = arrowright;
lastChange = "2024-07-26 12:21:12 +0000";
layers = (
{
.lastUpdate = 743689272.939;
layerId = m01;
shapes = (
{
closed = 1;
nodes = (
(582,712,ls),
(574,720,o),
(560,720,qs),
(546,721,o),
(537,712,qs),
(533,707,o),
(528,696,o),
(528,690,qs),
(528,676,o),
(537,667,qs),
(776,429,l),
(130,429,ls),
(121,429,o),
(110,420,q),
(109,420,o),
(109,420,q),
(108,419,o),
(108,419,q),
(106,417,o),
(103,412,o),
(101,407,o),
(99,402,o),
(99,399,qs),
(99,391,o),
(106,378,qs),
(108,374,o),
(112,372,qs),
(124,367,ls),
(127,366,o),
(130,366,qs),
(775,366,l),
(530,121,ls),
(527,118,o),
(524,111,o),
(522,103,o),
(522,99,qs),
(522,86,o),
(530,77,q),
(529,77,o),
(530,76,qs),
(532,74,o),
(537,71,o),
(542,69,o),
(547,68,o),
(550,67,q),
(565,65,o),
(575,76,qs),
(874,375,l),
(879,379,o),
(883,389,o),
(883,395,qs),
(884,404,o),
(881,410,q),
(880,411,o),
(879,413,o),
(877,416,o),
(876,417,qs),
(871,423,l)
);
}
);
width = 924;
}
);
note = arrowright;
unicode = 8594;
changeCount = 14;
},
{
glyphname = arrowdown;
layers = (
{
.lastUpdate = 743689192.628;
layerId = m01;
shapes = (
{
closed = 1;
nodes = (
(810,302,ls),
(819,310,o),
(819,324,qs),
(819,329,o),
(814,342,o),
(810,346,qs),
(807,349,o),
(800,353,o),
(792,355,o),
(784,355,o),
(776,353,o),
(768,349,o),
(765,346,qs),
(527,108,l),
(527,753,ls),
(527,757,o),
(524,765,o),
(521,771,o),
(518,774,q),
(518,774,l),
(517,775,o),
(517,775,q),
(514,778,o),
(508,781,o),
(501,784,o),
(497,784,qs),
(489,784,o),
(476,777,qs),
(472,775,o),
(470,771,qs),
(465,759,ls),
(464,756,o),
(464,753,qs),
(464,108,l),
(219,353,ls),
(210,361,o),
(197,362,qs),
(184,362,o),
(175,354,q),
(175,353,l),
(172,350,o),
(168,343,o),
(167,338,o),
(166,333,qs),
(163,318,o),
(174,308,qs),
(473,9,ls),
(480,1,o),
(493,0,qs),
(494,0,o),
(498,0,o),
(502,1,o),
(506,2,o),
(508,3,qs),
(511,5,o),
(515,7,q),
(521,12,l)
);
}
);
width = 924;
}
);
note = arrowdown;
unicode = 8595;
},
{
glyphname = arrowboth;
layers = (
{
.lastUpdate = 743689192.629;
layerId = m01;
shapes = (
{
closed = 1;
nodes = (
(429,690,l),
(429,690,l),
(431,689,o),
(432,689,q),
(432,688,o),
(432,688,q),
(432,687,ls),
(432,686,o),
(432,686,q),
(162,416,l),
(158,407,l),
(158,403,o),
(161,396,o),
(169,391,o),
(173,391,qs),
(1103,391,l),
(1108,392,o),
(1112,395,qs),
(1117,399,o),
(1117,412,o),
(1113,416,qs),
(843,686,l),
(843,686,l),
(843,687,o),
(844,688,o),
(844,689,q),
(845,690,o),
(846,690,q),
(847,689,l),
(1147,389,l),
(1146,388,o),
(1144,385,q),
(854,95,l),
(853,95,ls),
(851,95,o),
(850,95,q),
(850,96,o),
(850,96,q),
(850,98,o),
(850,98,q),
(1113,362,l),
(1118,371,l),
(1118,377,o),
(1109,386,o),
(1103,386,qs),
(172,386,ls),
(171,386,o),
(165,385,o),
(163,383,qs),
(158,379,o),
(158,366,o),
(162,362,qs),
(425,98,l),
(426,96,l),
(425,95,o),
(425,95,q),
(425,95,l),
(425,95,l),
(424,95,ls),
(422,95,o),
(421,95,q),
(132,385,l),
(131,392,l)
);
}
);
width = 1279;
}
);
note = arrowboth;
unicode = 8596;
},
{
glyphname = arrowupdn;
lastChange = "2024-07-26 12:23:30 +0000";
layers = (
{
.lastUpdate = 743689420.634;
layerId = m01;
shapes = (
{
closed = 1;
nodes = (
(631,716,o),
(628,720,qs),
(626,723,o),
(621,725,o),
(615,726,o),
(609,723,o),
(607,721,qs),
(407,522,l),
(343,458,l),
(343,458,l),
(342,458,o),
(342,458,q),
(341,458,o),
(340,458,q),
(340,459,o),
(340,459,q),
(341,461,o),
(341,462,q),
(425,546,l),
(632,754,l),
(636,753,o),
(638,752,q),
(864,525,l),
(935,454,l),
(935,454,l),
(934,452,o),
(934,451,q),
(934,451,o),
(934,451,q),
(932,451,o),
(931,451,q),
(839,543,l),
(662,721,l),
(657,725,o),
(652,725,qs),
(644,726,o),
(637,720,o),
(637,711,qs),
(637,426,l),
(637,323,l),
(637,73,ls),
(637,69,o),
(638,65,o),
(640,63,qs),
(646,57,o),
(656,57,o),
(662,63,qs),
(839,240,l),
(931,332,l),
(933,332,ls),
(934,332,o),
(934,332,q),
(935,329,l),
(864,258,l),
(637,31,l),
(635,30,o),
(634,30,qs),
(631,31,l),
(631,31,l),
(425,237,l),
(340,322,l),
(340,323,o),
(340,323,q),
(340,325,o),
(341,326,q),
(342,326,o),
(342,326,q),
(343,325,o),
(344,325,q),
(407,262,l),
(607,62,ls),
(611,58,o),
(616,58,qs),
(624,57,o),
(632,64,o),
(632,73,qs),
(632,327,l),
(632,711,l)
);
},
{
closed = 1;
nodes = (
(634,30,l)
);
}
);
width = 1279;
}
);
note = arrowupdn;
unicode = 8597;
changeCount = 1;
},
{
glyphname = uni2196;
layers = (
{
.lastUpdate = 743689192.629;
layerId = m01;
shapes = (
{
closed = 1;
nodes = (
(133,753,o),
(134,754,qs),
(135,755,l),
(137,755,l),
(428,755,l),
(548,755,ls),
(549,755,o),
(550,754,qs),
(551,752,l),
(550,751,o),
(550,751,q),
(550,750,o),
(549,750,qs),
(458,750,l),
(176,750,ls),
(171,750,o),
(167,747,qs),
(164,744,o),
(161,736,o),
(163,728,o),
(166,725,qs),
(346,545,l),
(858,33,l),
(858,32,l),
(857,31,o),
(857,30,q),
(852,32,l),
(364,520,l),
(163,721,ls),
(161,723,o),
(155,726,o),
(153,726,qs),
(147,726,o),
(138,717,o),
(138,711,qs),
(138,460,l),
(138,330,l),
(138,330,l),
(137,329,o),
(136,328,o),
(135,328,q),
(133,329,l),
(133,429,l),
(133,752,ls)
);
},
{
closed = 1;
nodes = (
(135,755,l)
);
}
);
width = 1013;
}
);
note = uni2196;
unicode = 8598;
},
{
glyphname = uni2197;
layers = (
{
.lastUpdate = 743689192.629;
layerId = m01;
shapes = (
{
closed = 1;
nodes = (
(887,755,o),
(887,757,qs),
(886,767,o),
(879,774,qs),
(875,778,o),
(869,781,qs),
(866,782,o),
(860,784,o),
(857,784,qs),
(856,784,o),
(855,784,q),
(855,784,l),
(854,784,o),
(853,784,qs),
(563,784,l),
(442,784,ls),
(430,784,o),
(411,764,o),
(411,752,qs),
(411,741,o),
(429,721,o),
(442,721,qs),
(532,721,l),
(779,721,l),
(624,566,l),
(112,54,ls),
(104,46,o),
(104,32,qs),
(104,31,o),
(104,31,q),
(104,20,o),
(111,11,qs),
(112,9,o),
(113,8,qs),
(116,6,o),
(122,3,o),
(127,1,o),
(131,0,qs),
(133,0,o),
(138,0,o),
(140,1,qs),
(152,6,ls),
(155,7,o),
(157,9,qs),
(648,500,l),
(824,676,l),
(824,460,l),
(824,329,l),
(823,318,o),
(833,308,qs),
(842,300,o),
(854,298,qs),
(855,298,o),
(855,298,q),
(864,299,o),
(875,306,qs),
(887,314,o),
(887,329,qs),
(887,429,l),
(887,752,ls)
);
}
);
width = 1013;
}
);
note = uni2197;
unicode = 8599;
},
{
glyphname = uni2198;
layers = (
{
.lastUpdate = 743689192.629;
layerId = m01;
shapes = (
{
closed = 1;
nodes = (
(858,31,o),
(857,30,qs),
(856,29,l),
(856,29,l),
(855,29,o),
(853,29,qs),
(563,29,l),
(442,29,l),
(441,30,o),
(441,30,q),
(440,32,l),
(440,33,o),
(441,34,q),
(442,34,l),
(532,34,l),
(815,34,l),
(820,35,o),
(824,38,qs),
(829,42,o),
(829,55,o),
(825,59,qs),
(645,239,l),
(133,751,l),
(133,753,ls),
(133,754,o),
(133,754,q),
(138,752,l),
(627,264,l),
(828,63,ls),
(829,62,o),
(835,59,o),
(837,59,qs),
(844,58,o),
(853,67,o),
(853,73,qs),
(853,325,l),
(853,454,ls),
(853,455,o),
(854,456,q),
(854,457,o),
(855,457,q),
(858,455,l),
(858,355,l),
(858,32,ls)
);
},
{
closed = 1;
nodes = (
(856,29,l)
);
}
);
width = 1013;
}
);
note = uni2198;
unicode = 8600;
},
{
glyphname = uni2199;
layers = (
{
.lastUpdate = 743689192.629;
layerId = m01;
shapes = (
{
closed = 1;
nodes = (
(104,29,o),
(104,27,q),
(105,24,o),
(107,18,o),
(110,13,o),
(112,11,q),
(113,9,o),
(115,7,o),
(118,5,o),
(121,4,o),
(122,3,qs),
(124,2,o),
(131,0,o),
(134,0,qs),
(135,0,ls),
(136,0,o),
(137,0,qs),
(138,0,l),
(428,0,l),
(549,0,ls),
(561,0,o),
(580,20,o),
(580,32,qs),
(580,43,o),
(562,63,o),
(549,63,qs),
(458,63,l),
(211,63,l),
(366,219,l),
(879,731,ls),
(883,735,o),
(887,746,o),
(887,752,qs),
(887,753,o),
(887,753,q),
(887,764,o),
(880,773,qs),
(878,775,o),
(877,776,qs),
(871,781,o),
(859,784,q),
(855,784,o),
(851,783,qs),
(839,779,l),
(838,778,o),
(835,776,o),
(834,775,qs),
(343,284,l),
(167,108,l),
(167,325,l),
(167,455,ls),
(167,466,o),
(157,476,qs),
(149,484,o),
(137,486,qs),
(135,486,ls),
(130,486,o),
(121,482,o),
(115,478,qs),
(113,477,o),
(110,474,o),
(107,470,o),
(105,466,o),
(104,461,o),
(104,457,o),
(104,455,qs),
(104,355,l),
(104,32,ls)
);
}
);
width = 1013;
}
);
note = uni2199;
unicode = 8601;
},
{
glyphname = uni2B08;
layers = (
{
.lastUpdate = 743689192.629;
layerId = m01;
shapes = (
{
closed = 1;
nodes = (
(768,755,o),
(768,757,qs),
(767,767,o),
(760,774,qs),
(757,778,o),
(751,781,qs),
(748,782,o),
(741,784,o),
(738,784,qs),
(737,784,o),
(737,784,q),
(737,784,l),
(736,784,o),
(735,784,qs),
(444,784,l),
(324,784,ls),
(312,784,o),
(292,764,o),
(292,752,qs),
(292,741,o),
(301,731,qs),
(311,721,o),
(324,721,qs),
(414,721,l),
(661,721,l),
(506,566,l),
(-6,54,ls),
(-15,46,o),
(-15,32,qs),
(-15,31,o),
(-15,31,q),
(-15,20,o),
(-8,11,qs),
(-6,9,o),
(-5,8,qs),
(1,3,o),
(13,0,q),
(17,0,o),
(21,1,qs),
(33,6,ls),
(36,7,o),
(38,9,qs),
(529,500,l),
(705,676,l),
(705,460,l),
(705,329,ls),
(705,318,o),
(715,308,qs),
(723,300,o),
(735,298,qs),
(736,298,o),
(737,298,qs),
(746,299,o),
(757,306,qs),
(768,314,o),
(768,329,qs),
(768,429,l),
(768,752,ls)
);
}
